<?xml version="1.0" encoding="UTF-8"?>
<svg xmlns="http://www.w3.org/2000/svg" xmlns:xlink="http://www.w3.org/1999/xlink" width="1500" height="400" viewBox="0 0 1500 400">
<defs>
<g>
<g id="glyph-0-0-0aaa68c1">
<path d="M 17.125 -11.296875 L 16.65625 -16.921875 L 1.375 -16.921875 L 0.90625 -11.296875 L 1.53125 -11.296875 C 1.875 -15.328125 2.25 -16.15625 6.03125 -16.15625 C 6.46875 -16.15625 7.125 -16.15625 7.375 -16.09375 C 7.90625 -16 7.90625 -15.71875 7.90625 -15.15625 L 7.90625 -1.96875 C 7.90625 -1.125 7.90625 -0.78125 5.28125 -0.78125 L 4.28125 -0.78125 L 4.28125 0 C 5.296875 -0.078125 7.84375 -0.078125 9 -0.078125 C 10.15625 -0.078125 12.71875 -0.078125 13.75 0 L 13.75 -0.78125 L 12.75 -0.78125 C 10.125 -0.78125 10.125 -1.125 10.125 -1.96875 L 10.125 -15.15625 C 10.125 -15.65625 10.125 -16 10.578125 -16.09375 C 10.84375 -16.15625 11.53125 -16.15625 12 -16.15625 C 15.78125 -16.15625 16.15625 -15.328125 16.5 -11.296875 Z M 17.125 -11.296875 "/>
</g>
<g id="glyph-0-1-0aaa68c1">
<path d="M 10.375 -2.96875 C 10.375 -3.21875 10.171875 -3.28125 10.046875 -3.28125 C 9.828125 -3.28125 9.78125 -3.125 9.71875 -2.921875 C 8.84375 -0.34375 6.59375 -0.34375 6.34375 -0.34375 C 5.09375 -0.34375 4.09375 -1.09375 3.53125 -2.03125 C 2.78125 -3.21875 2.78125 -4.875 2.78125 -5.78125 L 9.75 -5.78125 C 10.296875 -5.78125 10.375 -5.78125 10.375 -6.296875 C 10.375 -8.78125 9.03125 -11.203125 5.90625 -11.203125 C 3 -11.203125 0.703125 -8.625 0.703125 -5.5 C 0.703125 -2.15625 3.328125 0.28125 6.203125 0.28125 C 9.25 0.28125 10.375 -2.5 10.375 -2.96875 Z M 8.71875 -6.296875 L 2.796875 -6.296875 C 2.953125 -10.03125 5.046875 -10.65625 5.90625 -10.65625 C 8.46875 -10.65625 8.71875 -7.28125 8.71875 -6.296875 Z M 8.71875 -6.296875 "/>
</g>
<g id="glyph-1-0-0aaa68c1">
<path d="M 6.171875 0 L 6.171875 -0.78125 C 4.53125 -0.78125 4.421875 -0.90625 4.421875 -1.875 L 4.421875 -11.046875 L 0.921875 -10.78125 L 0.921875 -10 C 2.546875 -10 2.78125 -9.84375 2.78125 -8.625 L 2.78125 -1.90625 C 2.78125 -0.78125 2.5 -0.78125 0.828125 -0.78125 L 0.828125 0 L 3.578125 -0.078125 C 4.453125 -0.078125 5.328125 -0.03125 6.171875 0 Z M 4.796875 -15.09375 C 4.796875 -15.78125 4.21875 -16.421875 3.46875 -16.421875 C 2.625 -16.421875 2.125 -15.71875 2.125 -15.09375 C 2.125 -14.421875 2.703125 -13.78125 3.453125 -13.78125 C 4.296875 -13.78125 4.796875 -14.46875 4.796875 -15.09375 Z M 4.796875 -15.09375 "/>
</g>
<g id="glyph-1-1-0aaa68c1">
<path d="M 20.328125 0 L 20.328125 -0.78125 C 19.03125 -0.78125 18.40625 -0.78125 18.375 -1.53125 L 18.375 -6.296875 C 18.375 -8.453125 18.375 -9.21875 17.59375 -10.125 C 17.25 -10.546875 16.421875 -11.046875 14.96875 -11.046875 C 12.875 -11.046875 11.78125 -9.546875 11.34375 -8.59375 C 11 -10.78125 9.15625 -11.046875 8.03125 -11.046875 C 6.203125 -11.046875 5.03125 -9.96875 4.328125 -8.421875 L 4.328125 -11.046875 L 0.796875 -10.78125 L 0.796875 -10 C 2.546875 -10 2.75 -9.828125 2.75 -8.59375 L 2.75 -1.90625 C 2.75 -0.78125 2.46875 -0.78125 0.796875 -0.78125 L 0.796875 0 L 3.625 -0.078125 L 6.421875 0 L 6.421875 -0.78125 C 4.75 -0.78125 4.46875 -0.78125 4.46875 -1.90625 L 4.46875 -6.5 C 4.46875 -9.09375 6.25 -10.5 7.84375 -10.5 C 9.421875 -10.5 9.703125 -9.15625 9.703125 -7.71875 L 9.703125 -1.90625 C 9.703125 -0.78125 9.421875 -0.78125 7.75 -0.78125 L 7.75 0 L 10.578125 -0.078125 L 13.375 0 L 13.375 -0.78125 C 11.703125 -0.78125 11.421875 -0.78125 11.421875 -1.90625 L 11.421875 -6.5 C 11.421875 -9.09375 13.203125 -10.5 14.796875 -10.5 C 16.375 -10.5 16.65625 -9.15625 16.65625 -7.71875 L 16.65625 -1.90625 C 16.65625 -0.78125 16.375 -0.78125 14.703125 -0.78125 L 14.703125 0 L 17.53125 -0.078125 Z M 20.328125 0 "/>
</g>
<g id="glyph-1-2-0aaa68c1">
<path d="M 11.21875 -5.03125 C 11.21875 -8 9.171875 -10.5 6.46875 -10.5 C 5.28125 -10.5 4.203125 -10.09375 3.296875 -9.21875 L 3.296875 -14.09375 C 3.796875 -13.953125 4.625 -13.78125 5.421875 -13.78125 C 8.5 -13.78125 10.25 -16.046875 10.25 -16.375 C 10.25 -16.53125 10.171875 -16.65625 10 -16.65625 C 10 -16.65625 9.921875 -16.65625 9.796875 -16.578125 C 9.296875 -16.34375 8.078125 -15.84375 6.40625 -15.84375 C 5.40625 -15.84375 4.25 -16.03125 3.078125 -16.546875 C 2.875 -16.625 2.78125 -16.625 2.78125 -16.625 C 2.53125 -16.625 2.53125 -16.421875 2.53125 -16.03125 L 2.53125 -8.625 C 2.53125 -8.171875 2.53125 -7.96875 2.875 -7.96875 C 3.046875 -7.96875 3.09375 -8.046875 3.203125 -8.203125 C 3.46875 -8.59375 4.40625 -9.953125 6.421875 -9.953125 C 7.71875 -9.953125 8.34375 -8.796875 8.546875 -8.34375 C 8.953125 -7.421875 9 -6.453125 9 -5.203125 C 9 -4.328125 9 -2.828125 8.40625 -1.78125 C 7.796875 -0.796875 6.875 -0.15625 5.71875 -0.15625 C 3.90625 -0.15625 2.46875 -1.46875 2.046875 -2.953125 C 2.125 -2.921875 2.203125 -2.90625 2.46875 -2.90625 C 3.296875 -2.90625 3.71875 -3.53125 3.71875 -4.125 C 3.71875 -4.71875 3.296875 -5.34375 2.46875 -5.34375 C 2.125 -5.34375 1.25 -5.171875 1.25 -4.03125 C 1.25 -1.875 2.96875 0.546875 5.78125 0.546875 C 8.671875 0.546875 11.21875 -1.84375 11.21875 -5.03125 Z M 11.21875 -5.03125 "/>
</g>
<g id="glyph-2-0-0aaa68c1">
<path d="M 11.5 -8 C 11.5 -10 11.375 -12 10.5 -13.84375 C 9.34375 -16.25 7.296875 -16.65625 6.25 -16.65625 C 4.75 -16.65625 2.921875 -16 1.90625 -13.671875 C 1.09375 -11.953125 0.96875 -10 0.96875 -8 C 0.96875 -6.125 1.078125 -3.875 2.09375 -1.96875 C 3.171875 0.046875 5 0.546875 6.21875 0.546875 C 7.578125 0.546875 9.46875 0.03125 10.578125 -2.34375 C 11.375 -4.078125 11.5 -6.03125 11.5 -8 Z M 9.421875 -8.296875 C 9.421875 -6.421875 9.421875 -4.71875 9.15625 -3.125 C 8.78125 -0.75 7.34375 0 6.21875 0 C 5.25 0 3.78125 -0.625 3.328125 -3.03125 C 3.046875 -4.53125 3.046875 -6.828125 3.046875 -8.296875 C 3.046875 -9.90625 3.046875 -11.546875 3.25 -12.90625 C 3.71875 -15.875 5.59375 -16.09375 6.21875 -16.09375 C 7.046875 -16.09375 8.703125 -15.65625 9.171875 -13.171875 C 9.421875 -11.78125 9.421875 -9.875 9.421875 -8.296875 Z M 9.421875 -8.296875 "/>
</g>
<g id="glyph-3-0-0aaa68c1">
<path d="M 11.21875 -5.03125 C 11.21875 -8 9.171875 -10.5 6.46875 -10.5 C 5.28125 -10.5 4.203125 -10.09375 3.296875 -9.21875 L 3.296875 -14.09375 C 3.796875 -13.953125 4.625 -13.78125 5.421875 -13.78125 C 8.5 -13.78125 10.25 -16.046875 10.25 -16.375 C 10.25 -16.53125 10.171875 -16.65625 10 -16.65625 C 10 -16.65625 9.921875 -16.65625 9.796875 -16.578125 C 9.296875 -16.34375 8.078125 -15.84375 6.40625 -15.84375 C 5.40625 -15.84375 4.25 -16.03125 3.078125 -16.546875 C 2.875 -16.625 2.78125 -16.625 2.78125 -16.625 C 2.53125 -16.625 2.53125 -16.421875 2.53125 -16.03125 L 2.53125 -8.625 C 2.53125 -8.171875 2.53125 -7.96875 2.875 -7.96875 C 3.046875 -7.96875 3.09375 -8.046875 3.203125 -8.203125 C 3.46875 -8.59375 4.40625 -9.953125 6.421875 -9.953125 C 7.71875 -9.953125 8.34375 -8.796875 8.546875 -8.34375 C 8.953125 -7.421875 9 -6.453125 9 -5.203125 C 9 -4.328125 9 -2.828125 8.40625 -1.78125 C 7.796875 -0.796875 6.875 -0.15625 5.71875 -0.15625 C 3.90625 -0.15625 2.46875 -1.46875 2.046875 -2.953125 C 2.125 -2.921875 2.203125 -2.90625 2.46875 -2.90625 C 3.296875 -2.90625 3.71875 -3.53125 3.71875 -4.125 C 3.71875 -4.71875 3.296875 -5.34375 2.46875 -5.34375 C 2.125 -5.34375 1.25 -5.171875 1.25 -4.03125 C 1.25 -1.875 2.96875 0.546875 5.78125 0.546875 C 8.671875 0.546875 11.21875 -1.84375 11.21875 -5.03125 Z M 11.21875 -5.03125 "/>
</g>
<g id="glyph-3-1-0aaa68c1">
<path d="M 11.5 -8 C 11.5 -10 11.375 -12 10.5 -13.84375 C 9.34375 -16.25 7.296875 -16.65625 6.25 -16.65625 C 4.75 -16.65625 2.921875 -16 1.90625 -13.671875 C 1.09375 -11.953125 0.96875 -10 0.96875 -8 C 0.96875 -6.125 1.078125 -3.875 2.09375 -1.96875 C 3.171875 0.046875 5 0.546875 6.21875 0.546875 C 7.578125 0.546875 9.46875 0.03125 10.578125 -2.34375 C 11.375 -4.078125 11.5 -6.03125 11.5 -8 Z M 9.421875 -8.296875 C 9.421875 -6.421875 9.421875 -4.71875 9.15625 -3.125 C 8.78125 -0.75 7.34375 0 6.21875 0 C 5.25 0 3.78125 -0.625 3.328125 -3.03125 C 3.046875 -4.53125 3.046875 -6.828125 3.046875 -8.296875 C 3.046875 -9.90625 3.046875 -11.546875 3.25 -12.90625 C 3.71875 -15.875 5.59375 -16.09375 6.21875 -16.09375 C 7.046875 -16.09375 8.703125 -15.65625 9.171875 -13.171875 C 9.421875 -11.78125 9.421875 -9.875 9.421875 -8.296875 Z M 9.421875 -8.296875 "/>
</g>
<g id="glyph-3-2-0aaa68c1">
<path d="M 10.46875 0 L 10.46875 -0.78125 L 9.671875 -0.78125 C 7.421875 -0.78125 7.34375 -1.046875 7.34375 -1.96875 L 7.34375 -16 C 7.34375 -16.59375 7.34375 -16.65625 6.78125 -16.65625 C 5.21875 -15.046875 3.03125 -15.046875 2.21875 -15.046875 L 2.21875 -14.28125 C 2.71875 -14.28125 4.203125 -14.28125 5.5 -14.921875 L 5.5 -1.96875 C 5.5 -1.078125 5.421875 -0.78125 3.171875 -0.78125 L 2.375 -0.78125 L 2.375 0 C 3.25 -0.078125 5.421875 -0.078125 6.421875 -0.078125 C 7.421875 -0.078125 9.59375 -0.078125 10.46875 0 Z M 10.46875 0 "/>
</g>
<g id="glyph-3-3-0aaa68c1">
<path d="M 11.21875 -4.34375 L 10.59375 -4.34375 C 10.46875 -3.59375 10.296875 -2.5 10.046875 -2.125 C 9.875 -1.921875 8.21875 -1.921875 7.671875 -1.921875 L 3.171875 -1.921875 L 5.828125 -4.5 C 9.71875 -7.953125 11.21875 -9.296875 11.21875 -11.796875 C 11.21875 -14.65625 8.96875 -16.65625 5.921875 -16.65625 C 3.09375 -16.65625 1.25 -14.34375 1.25 -12.125 C 1.25 -10.71875 2.5 -10.71875 2.578125 -10.71875 C 3 -10.71875 3.875 -11.03125 3.875 -12.046875 C 3.875 -12.703125 3.421875 -13.34375 2.546875 -13.34375 C 2.34375 -13.34375 2.296875 -13.34375 2.21875 -13.328125 C 2.796875 -14.953125 4.15625 -15.875 5.59375 -15.875 C 7.875 -15.875 8.953125 -13.84375 8.953125 -11.796875 C 8.953125 -9.796875 7.703125 -7.828125 6.328125 -6.28125 L 1.53125 -0.921875 C 1.25 -0.65625 1.25 -0.59375 1.25 0 L 10.53125 0 Z M 11.21875 -4.34375 "/>
</g>
<g id="glyph-3-4-0aaa68c1">
<path d="M 11.78125 -4.125 L 11.78125 -4.90625 L 9.28125 -4.90625 L 9.28125 -16.28125 C 9.28125 -16.78125 9.28125 -16.921875 8.875 -16.921875 C 8.65625 -16.921875 8.578125 -16.921875 8.375 -16.625 L 0.703125 -4.90625 L 0.703125 -4.125 L 7.34375 -4.125 L 7.34375 -1.953125 C 7.34375 -1.046875 7.296875 -0.78125 5.453125 -0.78125 L 4.921875 -0.78125 L 4.921875 0 C 5.953125 -0.078125 7.25 -0.078125 8.296875 -0.078125 C 9.34375 -0.078125 10.671875 -0.078125 11.703125 0 L 11.703125 -0.78125 L 11.171875 -0.78125 C 9.328125 -0.78125 9.28125 -1.046875 9.28125 -1.953125 L 9.28125 -4.125 Z M 7.5 -4.90625 L 1.40625 -4.90625 L 7.5 -14.21875 Z M 7.5 -4.90625 "/>
</g>
<g id="glyph-3-5-0aaa68c1">
<path d="M 10.375 -2.96875 C 10.375 -3.21875 10.171875 -3.28125 10.046875 -3.28125 C 9.828125 -3.28125 9.78125 -3.125 9.71875 -2.921875 C 8.84375 -0.34375 6.59375 -0.34375 6.34375 -0.34375 C 5.09375 -0.34375 4.09375 -1.09375 3.53125 -2.03125 C 2.78125 -3.21875 2.78125 -4.875 2.78125 -5.78125 L 9.75 -5.78125 C 10.296875 -5.78125 10.375 -5.78125 10.375 -6.296875 C 10.375 -8.78125 9.03125 -11.203125 5.90625 -11.203125 C 3 -11.203125 0.703125 -8.625 0.703125 -5.5 C 0.703125 -2.15625 3.328125 0.28125 6.203125 0.28125 C 9.25 0.28125 10.375 -2.5 10.375 -2.96875 Z M 8.71875 -6.296875 L 2.796875 -6.296875 C 2.953125 -10.03125 5.046875 -10.65625 5.90625 -10.65625 C 8.46875 -10.65625 8.71875 -7.28125 8.71875 -6.296875 Z M 8.71875 -6.296875 "/>
</g>
<g id="glyph-3-6-0aaa68c1">
<path d="M 17.125 -11.296875 L 16.65625 -16.921875 L 1.375 -16.921875 L 0.90625 -11.296875 L 1.53125 -11.296875 C 1.875 -15.328125 2.25 -16.15625 6.03125 -16.15625 C 6.46875 -16.15625 7.125 -16.15625 7.375 -16.09375 C 7.90625 -16 7.90625 -15.71875 7.90625 -15.15625 L 7.90625 -1.96875 C 7.90625 -1.125 7.90625 -0.78125 5.28125 -0.78125 L 4.28125 -0.78125 L 4.28125 0 C 5.296875 -0.078125 7.84375 -0.078125 9 -0.078125 C 10.15625 -0.078125 12.71875 -0.078125 13.75 0 L 13.75 -0.78125 L 12.75 -0.78125 C 10.125 -0.78125 10.125 -1.125 10.125 -1.96875 L 10.125 -15.15625 C 10.125 -15.65625 10.125 -16 10.578125 -16.09375 C 10.84375 -16.15625 11.53125 -16.15625 12 -16.15625 C 15.78125 -16.15625 16.15625 -15.328125 16.5 -11.296875 Z M 17.125 -11.296875 "/>
</g>
<g id="glyph-3-7-0aaa68c1">
<path d="M 6.171875 0 L 6.171875 -0.78125 C 4.53125 -0.78125 4.421875 -0.90625 4.421875 -1.875 L 4.421875 -11.046875 L 0.921875 -10.78125 L 0.921875 -10 C 2.546875 -10 2.78125 -9.84375 2.78125 -8.625 L 2.78125 -1.90625 C 2.78125 -0.78125 2.5 -0.78125 0.828125 -0.78125 L 0.828125 0 L 3.578125 -0.078125 C 4.453125 -0.078125 5.328125 -0.03125 6.171875 0 Z M 4.796875 -15.09375 C 4.796875 -15.78125 4.21875 -16.421875 3.46875 -16.421875 C 2.625 -16.421875 2.125 -15.71875 2.125 -15.09375 C 2.125 -14.421875 2.703125 -13.78125 3.453125 -13.78125 C 4.296875 -13.78125 4.796875 -14.46875 4.796875 -15.09375 Z M 4.796875 -15.09375 "/>
</g>
<g id="glyph-3-8-0aaa68c1">
<path d="M 20.328125 0 L 20.328125 -0.78125 C 19.03125 -0.78125 18.40625 -0.78125 18.375 -1.53125 L 18.375 -6.296875 C 18.375 -8.453125 18.375 -9.21875 17.59375 -10.125 C 17.25 -10.546875 16.421875 -11.046875 14.96875 -11.046875 C 12.875 -11.046875 11.78125 -9.546875 11.34375 -8.59375 C 11 -10.78125 9.15625 -11.046875 8.03125 -11.046875 C 6.203125 -11.046875 5.03125 -9.96875 4.328125 -8.421875 L 4.328125 -11.046875 L 0.796875 -10.78125 L 0.796875 -10 C 2.546875 -10 2.75 -9.828125 2.75 -8.59375 L 2.75 -1.90625 C 2.75 -0.78125 2.46875 -0.78125 0.796875 -0.78125 L 0.796875 0 L 3.625 -0.078125 L 6.421875 0 L 6.421875 -0.78125 C 4.75 -0.78125 4.46875 -0.78125 4.46875 -1.90625 L 4.46875 -6.5 C 4.46875 -9.09375 6.25 -10.5 7.84375 -10.5 C 9.421875 -10.5 9.703125 -9.15625 9.703125 -7.71875 L 9.703125 -1.90625 C 9.703125 -0.78125 9.421875 -0.78125 7.75 -0.78125 L 7.75 0 L 10.578125 -0.078125 L 13.375 0 L 13.375 -0.78125 C 11.703125 -0.78125 11.421875 -0.78125 11.421875 -1.90625 L 11.421875 -6.5 C 11.421875 -9.09375 13.203125 -10.5 14.796875 -10.5 C 16.375 -10.5 16.65625 -9.15625 16.65625 -7.71875 L 16.65625 -1.90625 C 16.65625 -0.78125 16.375 -0.78125 14.703125 -0.78125 L 14.703125 0 L 17.53125 -0.078125 Z M 20.328125 0 "/>
</g>
<g id="glyph-3-9-0aaa68c1">
<path d="M 12.46875 -4.65625 C 12.46875 -7.15625 10.828125 -9.203125 8.71875 -9.703125 L 5.53125 -10.46875 C 3.96875 -10.84375 3 -12.203125 3 -13.65625 C 3 -15.40625 4.34375 -16.921875 6.296875 -16.921875 C 10.46875 -16.921875 11.03125 -12.828125 11.171875 -11.703125 C 11.203125 -11.546875 11.203125 -11.40625 11.46875 -11.40625 C 11.796875 -11.40625 11.796875 -11.53125 11.796875 -12 L 11.796875 -17.03125 C 11.796875 -17.453125 11.796875 -17.625 11.53125 -17.625 C 11.34375 -17.625 11.328125 -17.59375 11.15625 -17.296875 L 10.28125 -15.875 C 9.53125 -16.59375 8.5 -17.625 6.28125 -17.625 C 3.5 -17.625 1.40625 -15.421875 1.40625 -12.78125 C 1.40625 -10.703125 2.71875 -8.875 4.671875 -8.203125 C 4.953125 -8.09375 6.21875 -7.796875 7.96875 -7.375 C 8.65625 -7.203125 9.40625 -7.03125 10.09375 -6.09375 C 10.625 -5.453125 10.875 -4.625 10.875 -3.796875 C 10.875 -2.03125 9.625 -0.21875 7.53125 -0.21875 C 6.796875 -0.21875 4.90625 -0.34375 3.578125 -1.578125 C 2.125 -2.921875 2.046875 -4.53125 2.03125 -5.421875 C 2 -5.671875 1.796875 -5.671875 1.71875 -5.671875 C 1.40625 -5.671875 1.40625 -5.5 1.40625 -5.046875 L 1.40625 -0.046875 C 1.40625 0.375 1.40625 0.546875 1.671875 0.546875 C 1.84375 0.546875 1.875 0.5 2.046875 0.21875 C 2.046875 0.21875 2.125 0.125 2.953125 -1.203125 C 3.71875 -0.34375 5.328125 0.546875 7.546875 0.546875 C 10.46875 0.546875 12.46875 -1.90625 12.46875 -4.65625 Z M 12.46875 -4.65625 "/>
</g>
<g id="glyph-3-10-0aaa68c1">
<path d="M 11.78125 -5.34375 C 11.78125 -8.546875 9.28125 -11.203125 6.25 -11.203125 C 3.125 -11.203125 0.703125 -8.46875 0.703125 -5.34375 C 0.703125 -2.125 3.296875 0.28125 6.21875 0.28125 C 9.25 0.28125 11.78125 -2.171875 11.78125 -5.34375 Z M 9.703125 -5.546875 C 9.703125 -4.65625 9.703125 -3.296875 9.15625 -2.203125 C 8.59375 -1.078125 7.5 -0.34375 6.25 -0.34375 C 5.171875 -0.34375 4.078125 -0.875 3.40625 -2.03125 C 2.78125 -3.125 2.78125 -4.65625 2.78125 -5.546875 C 2.78125 -6.53125 2.78125 -7.875 3.375 -8.96875 C 4.046875 -10.125 5.21875 -10.65625 6.21875 -10.65625 C 7.328125 -10.65625 8.40625 -10.09375 9.046875 -9.03125 C 9.703125 -7.953125 9.703125 -6.5 9.703125 -5.546875 Z M 9.703125 -5.546875 "/>
</g>
<g id="glyph-3-11-0aaa68c1">
<path d="M 9.09375 -9.53125 C 9.09375 -10.328125 8.328125 -11.046875 7.25 -11.046875 C 5.421875 -11.046875 4.53125 -9.375 4.171875 -8.296875 L 4.171875 -11.046875 L 0.703125 -10.78125 L 0.703125 -10 C 2.453125 -10 2.65625 -9.828125 2.65625 -8.59375 L 2.65625 -1.90625 C 2.65625 -0.78125 2.375 -0.78125 0.703125 -0.78125 L 0.703125 0 L 3.546875 -0.078125 C 4.546875 -0.078125 5.71875 -0.078125 6.71875 0 L 6.71875 -0.78125 L 6.203125 -0.78125 C 4.34375 -0.78125 4.296875 -1.046875 4.296875 -1.953125 L 4.296875 -5.796875 C 4.296875 -8.28125 5.34375 -10.5 7.25 -10.5 C 7.421875 -10.5 7.46875 -10.5 7.53125 -10.46875 C 7.453125 -10.453125 6.953125 -10.15625 6.953125 -9.5 C 6.953125 -8.796875 7.46875 -8.421875 8.03125 -8.421875 C 8.46875 -8.421875 9.09375 -8.71875 9.09375 -9.53125 Z M 9.09375 -9.53125 "/>
</g>
<g id="glyph-3-12-0aaa68c1">
<path d="M 13.171875 0 L 13.171875 -0.78125 C 11.421875 -0.78125 11.21875 -0.953125 11.21875 -2.171875 L 11.21875 -17.34375 L 7.625 -17.078125 L 7.625 -16.296875 C 9.375 -16.296875 9.578125 -16.125 9.578125 -14.90625 L 9.578125 -9.5 C 8.84375 -10.40625 7.78125 -11.046875 6.421875 -11.046875 C 3.46875 -11.046875 0.84375 -8.59375 0.84375 -5.375 C 0.84375 -2.203125 3.296875 0.28125 6.15625 0.28125 C 7.75 0.28125 8.875 -0.578125 9.5 -1.375 L 9.5 0.28125 Z M 9.5 -2.953125 C 9.5 -2.5 9.5 -2.453125 9.21875 -2.03125 C 8.46875 -0.828125 7.34375 -0.28125 6.28125 -0.28125 C 5.15625 -0.28125 4.25 -0.921875 3.65625 -1.875 C 3 -2.90625 2.921875 -4.328125 2.921875 -5.34375 C 2.921875 -6.28125 2.96875 -7.78125 3.703125 -8.90625 C 4.21875 -9.671875 5.171875 -10.5 6.53125 -10.5 C 7.40625 -10.5 8.453125 -10.125 9.21875 -9 C 9.5 -8.578125 9.5 -8.53125 9.5 -8.078125 Z M 9.5 -2.953125 "/>
</g>
<g id="glyph-4-0-0aaa68c1">
<path d="M 10.46875 0 L 10.46875 -0.78125 L 9.671875 -0.78125 C 7.421875 -0.78125 7.34375 -1.046875 7.34375 -1.96875 L 7.34375 -16 C 7.34375 -16.59375 7.34375 -16.65625 6.78125 -16.65625 C 5.21875 -15.046875 3.03125 -15.046875 2.21875 -15.046875 L 2.21875 -14.28125 C 2.71875 -14.28125 4.203125 -14.28125 5.5 -14.921875 L 5.5 -1.96875 C 5.5 -1.078125 5.421875 -0.78125 3.171875 -0.78125 L 2.375 -0.78125 L 2.375 0 C 3.25 -0.078125 5.421875 -0.078125 6.421875 -0.078125 C 7.421875 -0.078125 9.59375 -0.078125 10.46875 0 Z M 10.46875 0 "/>
</g>
<g id="glyph-4-1-0aaa68c1">
<path d="M 17.125 -11.296875 L 16.65625 -16.921875 L 1.375 -16.921875 L 0.90625 -11.296875 L 1.53125 -11.296875 C 1.875 -15.328125 2.25 -16.15625 6.03125 -16.15625 C 6.46875 -16.15625 7.125 -16.15625 7.375 -16.09375 C 7.90625 -16 7.90625 -15.71875 7.90625 -15.15625 L 7.90625 -1.96875 C 7.90625 -1.125 7.90625 -0.78125 5.28125 -0.78125 L 4.28125 -0.78125 L 4.28125 0 C 5.296875 -0.078125 7.84375 -0.078125 9 -0.078125 C 10.15625 -0.078125 12.71875 -0.078125 13.75 0 L 13.75 -0.78125 L 12.75 -0.78125 C 10.125 -0.78125 10.125 -1.125 10.125 -1.96875 L 10.125 -15.15625 C 10.125 -15.65625 10.125 -16 10.578125 -16.09375 C 10.84375 -16.15625 11.53125 -16.15625 12 -16.15625 C 15.78125 -16.15625 16.15625 -15.328125 16.5 -11.296875 Z M 17.125 -11.296875 "/>
</g>
<g id="glyph-4-2-0aaa68c1">
<path d="M 11.21875 -5.03125 C 11.21875 -8 9.171875 -10.5 6.46875 -10.5 C 5.28125 -10.5 4.203125 -10.09375 3.296875 -9.21875 L 3.296875 -14.09375 C 3.796875 -13.953125 4.625 -13.78125 5.421875 -13.78125 C 8.5 -13.78125 10.25 -16.046875 10.25 -16.375 C 10.25 -16.53125 10.171875 -16.65625 10 -16.65625 C 10 -16.65625 9.921875 -16.65625 9.796875 -16.578125 C 9.296875 -16.34375 8.078125 -15.84375 6.40625 -15.84375 C 5.40625 -15.84375 4.25 -16.03125 3.078125 -16.546875 C 2.875 -16.625 2.78125 -16.625 2.78125 -16.625 C 2.53125 -16.625 2.53125 -16.421875 2.53125 -16.03125 L 2.53125 -8.625 C 2.53125 -8.171875 2.53125 -7.96875 2.875 -7.96875 C 3.046875 -7.96875 3.09375 -8.046875 3.203125 -8.203125 C 3.46875 -8.59375 4.40625 -9.953125 6.421875 -9.953125 C 7.71875 -9.953125 8.34375 -8.796875 8.546875 -8.34375 C 8.953125 -7.421875 9 -6.453125 9 -5.203125 C 9 -4.328125 9 -2.828125 8.40625 -1.78125 C 7.796875 -0.796875 6.875 -0.15625 5.71875 -0.15625 C 3.90625 -0.15625 2.46875 -1.46875 2.046875 -2.953125 C 2.125 -2.921875 2.203125 -2.90625 2.46875 -2.90625 C 3.296875 -2.90625 3.71875 -3.53125 3.71875 -4.125 C 3.71875 -4.71875 3.296875 -5.34375 2.46875 -5.34375 C 2.125 -5.34375 1.25 -5.171875 1.25 -4.03125 C 1.25 -1.875 2.96875 0.546875 5.78125 0.546875 C 8.671875 0.546875 11.21875 -1.84375 11.21875 -5.03125 Z M 11.21875 -5.03125 "/>
</g>
<g id="glyph-5-0-0aaa68c1">
<path d="M -16.296875 -18.25 L -17.078125 -18.25 C -17.03125 -17.46875 -17 -16.46875 -17 -15.828125 L -17.078125 -12.96875 L -16.296875 -12.96875 C -16.28125 -14.28125 -15.625 -14.796875 -15.046875 -14.796875 C -14.84375 -14.796875 -14.703125 -14.71875 -14.546875 -14.671875 L -2.5 -10.09375 L -15.125 -5.328125 C -15.46875 -5.171875 -15.578125 -5.171875 -15.578125 -5.171875 C -16.296875 -5.171875 -16.296875 -6.59375 -16.296875 -7.21875 L -17.078125 -7.21875 C -17 -6.328125 -17 -4.59375 -17 -3.65625 L -17.078125 -0.46875 L -16.296875 -0.46875 C -16.296875 -2.09375 -16.296875 -2.578125 -15.34375 -2.921875 L 0 -8.71875 C 0.46875 -8.90625 0.546875 -9.03125 0.546875 -9.34375 C 0.546875 -9.78125 0.421875 -9.828125 0.078125 -9.953125 L -14.625 -15.53125 C -15.546875 -15.875 -16.28125 -16.546875 -16.296875 -18.25 Z M -16.296875 -18.25 "/>
</g>
<g id="glyph-5-1-0aaa68c1">
<path d="M 0 -6.375 L -0.78125 -6.375 C -0.78125 -4.703125 -0.78125 -4.421875 -1.90625 -4.421875 L -17.34375 -4.421875 L -17.078125 -0.828125 L -16.296875 -0.828125 C -16.296875 -2.578125 -16.125 -2.78125 -14.90625 -2.78125 L -1.90625 -2.78125 C -0.78125 -2.78125 -0.78125 -2.5 -0.78125 -0.828125 L 0 -0.828125 L -0.078125 -3.59375 Z M 0 -6.375 "/>
</g>
<g id="glyph-5-2-0aaa68c1">
<path d="M 0 -13.375 L -0.78125 -13.375 C -0.78125 -11.625 -0.953125 -11.421875 -2.171875 -11.421875 L -11.046875 -11.421875 L -10.78125 -7.75 L -10 -7.75 C -10 -9.5 -9.828125 -9.703125 -8.59375 -9.703125 L -4.15625 -9.703125 C -1.96875 -9.703125 -0.28125 -8.5 -0.28125 -6.671875 C -0.28125 -4.578125 -1.453125 -4.46875 -2.75 -4.46875 L -11.046875 -4.46875 L -10.78125 -0.796875 L -10 -0.796875 C -10 -2.75 -9.921875 -2.75 -7.703125 -2.75 L -3.953125 -2.75 C -2 -2.75 0.28125 -2.75 0.28125 -6.546875 C 0.28125 -7.953125 -0.421875 -9.046875 -1.96875 -9.78125 L 0.28125 -9.78125 Z M 0 -13.375 "/>
</g>
<g id="glyph-5-3-0aaa68c1">
<path d="M -0.375 -15.59375 C -0.546875 -15.796875 -0.875 -15.796875 -1.078125 -15.59375 L -6.25 -10.421875 L -11.421875 -15.59375 C -11.625 -15.796875 -11.953125 -15.796875 -12.125 -15.59375 C -12.328125 -15.421875 -12.328125 -15.09375 -12.125 -14.90625 L -6.953125 -9.71875 L -12.125 -4.546875 C -12.328125 -4.34375 -12.328125 -4.03125 -12.125 -3.84375 C -11.953125 -3.65625 -11.625 -3.65625 -11.421875 -3.84375 L -6.25 -9.03125 L -1.078125 -3.84375 C -0.875 -3.65625 -0.546875 -3.65625 -0.375 -3.84375 C -0.171875 -4.03125 -0.171875 -4.34375 -0.375 -4.546875 L -5.546875 -9.71875 L -0.375 -14.90625 C -0.171875 -15.09375 -0.171875 -15.421875 -0.375 -15.59375 Z M -0.375 -15.59375 "/>
</g>
<g id="glyph-6-0-0aaa68c1">
<path d="M -5.34375 -11.78125 C -8.546875 -11.78125 -11.203125 -9.28125 -11.203125 -6.25 C -11.203125 -3.125 -8.46875 -0.703125 -5.34375 -0.703125 C -2.125 -0.703125 0.28125 -3.296875 0.28125 -6.21875 C 0.28125 -9.25 -2.171875 -11.78125 -5.34375 -11.78125 Z M -5.546875 -9.703125 C -4.65625 -9.703125 -3.296875 -9.703125 -2.203125 -9.15625 C -1.078125 -8.59375 -0.34375 -7.5 -0.34375 -6.25 C -0.34375 -5.171875 -0.875 -4.078125 -2.03125 -3.40625 C -3.125 -2.78125 -4.65625 -2.78125 -5.546875 -2.78125 C -6.53125 -2.78125 -7.875 -2.78125 -8.96875 -3.375 C -10.125 -4.046875 -10.65625 -5.21875 -10.65625 -6.21875 C -10.65625 -7.328125 -10.09375 -8.40625 -9.03125 -9.046875 C -7.953125 -9.703125 -6.5 -9.703125 -5.546875 -9.703125 Z M -5.546875 -9.703125 "/>
</g>
<g id="glyph-6-1-0aaa68c1">
<path d="M -2.96875 -10.375 C -3.21875 -10.375 -3.28125 -10.171875 -3.28125 -10.046875 C -3.28125 -9.828125 -3.125 -9.78125 -2.921875 -9.71875 C -0.34375 -8.84375 -0.34375 -6.59375 -0.34375 -6.34375 C -0.34375 -5.09375 -1.09375 -4.09375 -2.03125 -3.53125 C -3.21875 -2.78125 -4.875 -2.78125 -5.78125 -2.78125 L -5.78125 -9.75 C -5.78125 -10.296875 -5.78125 -10.375 -6.296875 -10.375 C -8.78125 -10.375 -11.203125 -9.03125 -11.203125 -5.90625 C -11.203125 -3 -8.625 -0.703125 -5.5 -0.703125 C -2.15625 -0.703125 0.28125 -3.328125 0.28125 -6.203125 C 0.28125 -9.25 -2.5 -10.375 -2.96875 -10.375 Z M -6.296875 -8.71875 L -6.296875 -2.796875 C -10.03125 -2.953125 -10.65625 -5.046875 -10.65625 -5.90625 C -10.65625 -8.46875 -7.28125 -8.71875 -6.296875 -8.71875 Z M -6.296875 -8.71875 "/>
</g>
<g id="glyph-7-0-0aaa68c1">
<path d="M 0 -20.328125 L -0.78125 -20.328125 C -0.78125 -19.03125 -0.78125 -18.40625 -1.53125 -18.375 L -6.296875 -18.375 C -8.453125 -18.375 -9.21875 -18.375 -10.125 -17.59375 C -10.546875 -17.25 -11.046875 -16.421875 -11.046875 -14.96875 C -11.046875 -12.875 -9.546875 -11.78125 -8.59375 -11.34375 C -10.78125 -11 -11.046875 -9.15625 -11.046875 -8.03125 C -11.046875 -6.203125 -9.96875 -5.03125 -8.421875 -4.328125 L -11.046875 -4.328125 L -10.78125 -0.796875 L -10 -0.796875 C -10 -2.546875 -9.828125 -2.75 -8.59375 -2.75 L -1.90625 -2.75 C -0.78125 -2.75 -0.78125 -2.46875 -0.78125 -0.796875 L 0 -0.796875 L -0.078125 -3.625 L 0 -6.421875 L -0.78125 -6.421875 C -0.78125 -4.75 -0.78125 -4.46875 -1.90625 -4.46875 L -6.5 -4.46875 C -9.09375 -4.46875 -10.5 -6.25 -10.5 -7.84375 C -10.5 -9.421875 -9.15625 -9.703125 -7.71875 -9.703125 L -1.90625 -9.703125 C -0.78125 -9.703125 -0.78125 -9.421875 -0.78125 -7.75 L 0 -7.75 L -0.078125 -10.578125 L 0 -13.375 L -0.78125 -13.375 C -0.78125 -11.703125 -0.78125 -11.421875 -1.90625 -11.421875 L -6.5 -11.421875 C -9.09375 -11.421875 -10.5 -13.203125 -10.5 -14.796875 C -10.5 -16.375 -9.15625 -16.65625 -7.71875 -16.65625 L -1.90625 -16.65625 C -0.78125 -16.65625 -0.78125 -16.375 -0.78125 -14.703125 L 0 -14.703125 L -0.078125 -17.53125 Z M 0 -20.328125 "/>
</g>
<g id="glyph-8-0-0aaa68c1">
</g>
<g id="glyph-9-0-0aaa68c1">
<path d="M 6.15625 -8.59375 C 6.078125 -8.59375 6 -8.53125 5.953125 -8.484375 C 3.9375 -5.796875 -1.234375 -4.015625 -5.375 -4.015625 L -7.5625 -4.015625 C -11.703125 -4.015625 -16.875 -5.796875 -18.890625 -8.484375 C -18.9375 -8.53125 -19.015625 -8.59375 -19.09375 -8.59375 C -19.21875 -8.59375 -19.359375 -8.46875 -19.359375 -8.328125 C -19.359375 -8.28125 -19.328125 -8.234375 -19.296875 -8.171875 C -17.15625 -5.328125 -11.984375 -2.609375 -7.5625 -2.609375 L -5.375 -2.609375 C -0.953125 -2.609375 4.21875 -5.328125 6.359375 -8.171875 C 6.390625 -8.234375 6.421875 -8.28125 6.421875 -8.328125 C 6.421875 -8.46875 6.28125 -8.59375 6.15625 -8.59375 Z M 6.15625 -8.59375 "/>
</g>
<g id="glyph-10-0-0aaa68c1">
<path d="M 0 -10.46875 L -0.78125 -10.46875 L -0.78125 -9.671875 C -0.78125 -7.421875 -1.046875 -7.34375 -1.96875 -7.34375 L -16 -7.34375 C -16.59375 -7.34375 -16.65625 -7.34375 -16.65625 -6.78125 C -15.046875 -5.21875 -15.046875 -3.03125 -15.046875 -2.21875 L -14.28125 -2.21875 C -14.28125 -2.71875 -14.28125 -4.203125 -14.921875 -5.5 L -1.96875 -5.5 C -1.078125 -5.5 -0.78125 -5.421875 -0.78125 -3.171875 L -0.78125 -2.375 L 0 -2.375 C -0.078125 -3.25 -0.078125 -5.421875 -0.078125 -6.421875 C -0.078125 -7.421875 -0.078125 -9.59375 0 -10.46875 Z M 0 -10.46875 "/>
</g>
<g id="glyph-11-0-0aaa68c1">
<path d="M -8 -11.5 C -10 -11.5 -12 -11.375 -13.84375 -10.5 C -16.25 -9.34375 -16.65625 -7.296875 -16.65625 -6.25 C -16.65625 -4.75 -16 -2.921875 -13.671875 -1.90625 C -11.953125 -1.09375 -10 -0.96875 -8 -0.96875 C -6.125 -0.96875 -3.875 -1.078125 -1.96875 -2.09375 C 0.046875 -3.171875 0.546875 -5 0.546875 -6.21875 C 0.546875 -7.578125 0.03125 -9.46875 -2.34375 -10.578125 C -4.078125 -11.375 -6.03125 -11.5 -8 -11.5 Z M -8.296875 -9.421875 C -6.421875 -9.421875 -4.71875 -9.421875 -3.125 -9.15625 C -0.75 -8.78125 0 -7.34375 0 -6.21875 C 0 -5.25 -0.625 -3.78125 -3.03125 -3.328125 C -4.53125 -3.046875 -6.828125 -3.046875 -8.296875 -3.046875 C -9.90625 -3.046875 -11.546875 -3.046875 -12.90625 -3.25 C -15.875 -3.71875 -16.09375 -5.59375 -16.09375 -6.21875 C -16.09375 -7.046875 -15.65625 -8.703125 -13.171875 -9.171875 C -11.78125 -9.421875 -9.875 -9.421875 -8.296875 -9.421875 Z M -8.296875 -9.421875 "/>
</g>
<g id="glyph-12-0-0aaa68c1">
<path d="M -3.015625 -6.734375 C -4.796875 -6.734375 -6.296875 -5.5 -6.296875 -3.890625 C -6.296875 -3.171875 -6.0625 -2.515625 -5.53125 -1.984375 L -8.453125 -1.984375 C -8.375 -2.28125 -8.265625 -2.78125 -8.265625 -3.25 C -8.265625 -5.09375 -9.625 -6.15625 -9.828125 -6.15625 C -9.921875 -6.15625 -9.984375 -6.109375 -9.984375 -6 C -9.984375 -6 -9.984375 -5.953125 -9.9375 -5.875 C -9.8125 -5.578125 -9.515625 -4.84375 -9.515625 -3.84375 C -9.515625 -3.234375 -9.609375 -2.546875 -9.9375 -1.84375 C -9.96875 -1.71875 -9.96875 -1.671875 -9.96875 -1.671875 C -9.96875 -1.515625 -9.859375 -1.515625 -9.609375 -1.515625 L -5.171875 -1.515625 C -4.90625 -1.515625 -4.78125 -1.515625 -4.78125 -1.71875 C -4.78125 -1.828125 -4.828125 -1.859375 -4.921875 -1.921875 C -5.15625 -2.078125 -5.96875 -2.640625 -5.96875 -3.859375 C -5.96875 -4.640625 -5.28125 -5.015625 -5.015625 -5.125 C -4.453125 -5.375 -3.875 -5.40625 -3.125 -5.40625 C -2.59375 -5.40625 -1.6875 -5.40625 -1.0625 -5.046875 C -0.484375 -4.6875 -0.09375 -4.125 -0.09375 -3.4375 C -0.09375 -2.34375 -0.890625 -1.484375 -1.765625 -1.234375 C -1.75 -1.28125 -1.734375 -1.3125 -1.734375 -1.484375 C -1.734375 -1.984375 -2.109375 -2.234375 -2.46875 -2.234375 C -2.828125 -2.234375 -3.203125 -1.984375 -3.203125 -1.484375 C -3.203125 -1.28125 -3.109375 -0.75 -2.421875 -0.75 C -1.125 -0.75 0.328125 -1.78125 0.328125 -3.46875 C 0.328125 -5.203125 -1.109375 -6.734375 -3.015625 -6.734375 Z M -3.015625 -6.734375 "/>
</g>
<g id="glyph-13-0-0aaa68c1">
<path d="M -5.375 -7.453125 L -7.5625 -7.453125 C -11.984375 -7.453125 -17.15625 -4.734375 -19.296875 -1.890625 C -19.328125 -1.84375 -19.359375 -1.78125 -19.359375 -1.734375 C -19.359375 -1.609375 -19.21875 -1.46875 -19.09375 -1.46875 C -19.015625 -1.46875 -18.9375 -1.53125 -18.890625 -1.578125 C -16.875 -4.265625 -11.703125 -6.0625 -7.5625 -6.0625 L -5.375 -6.0625 C -1.234375 -6.0625 3.9375 -4.265625 5.953125 -1.578125 C 6 -1.53125 6.078125 -1.46875 6.15625 -1.46875 C 6.28125 -1.46875 6.421875 -1.609375 6.421875 -1.734375 C 6.421875 -1.78125 6.390625 -1.84375 6.359375 -1.890625 C 4.21875 -4.734375 -0.953125 -7.453125 -5.375 -7.453125 Z M -5.375 -7.453125 "/>
</g>
<g id="glyph-14-0-0aaa68c1">
<path d="M 14.34375 -5.078125 C 14.34375 -7.84375 12.328125 -9.875 10.046875 -10.34375 L 6.421875 -11.125 C 5.421875 -11.34375 4.03125 -12.203125 4.03125 -13.71875 C 4.03125 -14.796875 4.71875 -16.34375 7.21875 -16.34375 C 9.21875 -16.34375 11.75 -15.5 12.328125 -12.09375 C 12.421875 -11.5 12.421875 -11.453125 12.953125 -11.453125 C 13.546875 -11.453125 13.546875 -11.578125 13.546875 -12.15625 L 13.546875 -16.71875 C 13.546875 -17.203125 13.546875 -17.421875 13.09375 -17.421875 C 12.90625 -17.421875 12.875 -17.40625 12.59375 -17.15625 L 11.46875 -16.046875 C 10.03125 -17.203125 8.40625 -17.421875 7.203125 -17.421875 C 3.40625 -17.421875 1.59375 -15.03125 1.59375 -12.40625 C 1.59375 -10.78125 2.421875 -9.625 2.953125 -9.078125 C 4.171875 -7.84375 5.03125 -7.671875 7.75 -7.078125 C 9.953125 -6.59375 10.375 -6.53125 10.921875 -6 C 11.296875 -5.625 11.921875 -4.96875 11.921875 -3.828125 C 11.921875 -2.625 11.28125 -0.90625 8.671875 -0.90625 C 6.78125 -0.90625 2.96875 -1.40625 2.78125 -5.125 C 2.75 -5.578125 2.75 -5.703125 2.203125 -5.703125 C 1.59375 -5.703125 1.59375 -5.546875 1.59375 -4.96875 L 1.59375 -0.421875 C 1.59375 0.046875 1.59375 0.28125 2.046875 0.28125 C 2.28125 0.28125 2.328125 0.21875 2.53125 0.046875 L 3.671875 -1.09375 C 5.328125 0.125 7.65625 0.28125 8.671875 0.28125 C 12.796875 0.28125 14.34375 -2.546875 14.34375 -5.078125 Z M 14.34375 -5.078125 "/>
</g>
<g id="glyph-14-1-0aaa68c1">
<path d="M 13.953125 -9.921875 C 13.953125 -10.5 13.53125 -11.375 12.375 -11.375 C 12 -11.375 10.828125 -11.296875 9.71875 -10.421875 C 9.28125 -10.71875 8.21875 -11.25 6.375 -11.25 C 2.78125 -11.25 1.40625 -9.296875 1.40625 -7.546875 C 1.40625 -6.53125 1.90625 -5.5 2.703125 -4.921875 C 2 -4.046875 1.84375 -3.21875 1.84375 -2.703125 C 1.84375 -2.328125 1.953125 -1.09375 2.953125 -0.296875 C 2.625 -0.21875 0.796875 0.296875 0.796875 1.875 C 0.796875 3.15625 2.171875 5.03125 7.171875 5.03125 C 11.59375 5.03125 13.546875 3.546875 13.546875 1.796875 C 13.546875 1.046875 13.34375 -0.53125 11.671875 -1.375 C 10.28125 -2.078125 8.78125 -2.078125 6.375 -2.078125 C 5.71875 -2.078125 4.578125 -2.078125 4.453125 -2.09375 C 3.34375 -2.28125 3.078125 -3.21875 3.078125 -3.671875 C 3.078125 -3.921875 3.171875 -4.296875 3.328125 -4.5 C 4.46875 -3.90625 5.75 -3.84375 6.375 -3.84375 C 9.96875 -3.84375 11.34375 -5.796875 11.34375 -7.546875 C 11.34375 -8.71875 10.71875 -9.546875 10.34375 -9.953125 C 11.09375 -10.34375 11.625 -10.40625 11.90625 -10.421875 C 11.84375 -10.296875 11.796875 -10.078125 11.796875 -9.921875 C 11.796875 -9.296875 12.21875 -8.84375 12.875 -8.84375 C 13.53125 -8.84375 13.953125 -9.328125 13.953125 -9.921875 Z M 8.578125 -7.546875 C 8.578125 -6.421875 8.578125 -4.75 6.375 -4.75 C 4.171875 -4.75 4.171875 -6.421875 4.171875 -7.546875 C 4.171875 -8.671875 4.171875 -10.34375 6.375 -10.34375 C 8.578125 -10.34375 8.578125 -8.671875 8.578125 -7.546875 Z M 11.40625 1.875 C 11.40625 2.78125 10.421875 4.125 7.171875 4.125 C 4.171875 4.125 2.953125 2.96875 2.953125 1.828125 C 2.953125 0.328125 4.53125 0.328125 4.875 0.328125 L 7.796875 0.328125 C 8.578125 0.328125 11.40625 0.328125 11.40625 1.875 Z M 11.40625 1.875 "/>
</g>
<g id="glyph-14-2-0aaa68c1">
<path d="M 13.828125 -0.59375 C 13.828125 -1.171875 13.5 -1.171875 13.171875 -1.171875 C 11.65625 -1.203125 11.65625 -1.53125 11.65625 -2.09375 L 11.65625 -7.46875 C 11.65625 -9.703125 9.875 -11.328125 6.15625 -11.328125 C 4.71875 -11.328125 1.671875 -11.21875 1.671875 -9.03125 C 1.671875 -7.921875 2.546875 -7.453125 3.21875 -7.453125 C 4 -7.453125 4.796875 -7.96875 4.796875 -9.03125 C 4.796875 -9.78125 4.328125 -10.203125 4.25 -10.25 C 4.953125 -10.40625 5.75 -10.421875 6.046875 -10.421875 C 7.921875 -10.421875 8.796875 -9.375 8.796875 -7.46875 L 8.796875 -6.625 C 7.03125 -6.546875 0.671875 -6.328125 0.671875 -2.703125 C 0.671875 -0.296875 3.78125 0.15625 5.5 0.15625 C 7.5 0.15625 8.671875 -0.875 9.21875 -1.921875 C 9.21875 -1.15625 9.21875 0 11.828125 0 L 13.03125 0 C 13.53125 0 13.828125 0 13.828125 -0.59375 Z M 8.796875 -3.46875 C 8.796875 -1.078125 6.5 -0.75 5.875 -0.75 C 4.59375 -0.75 3.59375 -1.625 3.59375 -2.71875 C 3.59375 -5.421875 7.546875 -5.78125 8.796875 -5.84375 Z M 8.796875 -3.46875 "/>
</g>
<g id="glyph-14-3-0aaa68c1">
<path d="M 11.046875 -9.203125 C 11.046875 -10.53125 9.703125 -11.25 8.40625 -11.25 C 6.65625 -11.25 5.65625 -10 5.078125 -8.421875 L 5.078125 -11.25 L 0.921875 -11.046875 L 0.921875 -9.875 C 2.46875 -9.875 2.65625 -9.875 2.65625 -8.90625 L 2.65625 -1.171875 L 0.921875 -1.171875 L 0.921875 0 L 4.078125 -0.078125 C 5.03125 -0.078125 6.625 -0.078125 7.53125 0 L 7.53125 -1.171875 L 5.34375 -1.171875 L 5.34375 -5.546875 C 5.34375 -7.296875 5.96875 -10.34375 8.46875 -10.34375 C 8.46875 -10.34375 8 -9.921875 8 -9.203125 C 8 -8.171875 8.796875 -7.671875 9.53125 -7.671875 C 10.25 -7.671875 11.046875 -8.203125 11.046875 -9.203125 Z M 11.046875 -9.203125 "/>
</g>
<g id="glyph-14-4-0aaa68c1">
</g>
<g id="glyph-14-5-0aaa68c1">
<path d="M 12.34375 0 L 12.34375 -1.171875 L 8.84375 -1.171875 L 8.84375 -15.578125 C 8.84375 -16.125 8.84375 -16.375 8.203125 -16.375 C 7.921875 -16.375 7.875 -16.375 7.65625 -16.203125 C 5.71875 -14.78125 3.15625 -14.78125 2.625 -14.78125 L 2.125 -14.78125 L 2.125 -13.59375 L 2.625 -13.59375 C 3.03125 -13.59375 4.40625 -13.625 5.875 -14.09375 L 5.875 -1.171875 L 2.40625 -1.171875 L 2.40625 0 C 3.5 -0.078125 6.15625 -0.078125 7.375 -0.078125 C 8.59375 -0.078125 11.25 -0.078125 12.34375 0 Z M 12.34375 0 "/>
</g>
<g id="glyph-14-6-0aaa68c1">
<path d="M 9.546875 -3.09375 L 9.546875 -4.421875 L 8.375 -4.421875 L 8.375 -3.15625 C 8.375 -1.453125 7.578125 -0.84375 6.875 -0.84375 C 5.421875 -0.84375 5.421875 -2.453125 5.421875 -3.03125 L 5.421875 -9.921875 L 9.078125 -9.921875 L 9.078125 -11.09375 L 5.421875 -11.09375 L 5.421875 -15.875 L 4.25 -15.875 C 4.21875 -13.375 3 -10.90625 0.53125 -10.828125 L 0.53125 -9.921875 L 2.578125 -9.921875 L 2.578125 -3.078125 C 2.578125 -0.40625 4.75 0.15625 6.53125 0.15625 C 8.421875 0.15625 9.546875 -1.28125 9.546875 -3.09375 Z M 9.546875 -3.09375 "/>
</g>
<g id="glyph-14-7-0aaa68c1">
<path d="M 13.546875 -5.453125 C 13.546875 -8.796875 11.25 -11.328125 7.171875 -11.328125 C 3.078125 -11.328125 0.796875 -8.78125 0.796875 -5.453125 C 0.796875 -2.34375 3 0.15625 7.171875 0.15625 C 11.375 0.15625 13.546875 -2.375 13.546875 -5.453125 Z M 10.34375 -5.71875 C 10.34375 -3.546875 10.34375 -0.84375 7.171875 -0.84375 C 4 -0.84375 4 -3.546875 4 -5.71875 C 4 -6.84375 4 -8.125 4.421875 -8.96875 C 4.90625 -9.90625 5.953125 -10.421875 7.171875 -10.421875 C 8.21875 -10.421875 9.28125 -10.03125 9.828125 -9.15625 C 10.34375 -8.296875 10.34375 -6.921875 10.34375 -5.71875 Z M 10.34375 -5.71875 "/>
</g>
<g id="glyph-14-8-0aaa68c1">
<path d="M 12.34375 -2.921875 C 12.34375 -3.375 11.875 -3.375 11.75 -3.375 C 11.328125 -3.375 11.28125 -3.25 11.125 -2.84375 C 10.59375 -1.65625 9.171875 -0.84375 7.546875 -0.84375 C 4.03125 -0.84375 4 -4.171875 4 -5.453125 L 11.546875 -5.453125 C 12.09375 -5.453125 12.34375 -5.453125 12.34375 -6.125 C 12.34375 -6.90625 12.203125 -8.71875 10.953125 -9.96875 C 10.03125 -10.875 8.703125 -11.328125 6.96875 -11.328125 C 2.96875 -11.328125 0.796875 -8.75 0.796875 -5.625 C 0.796875 -2.28125 3.296875 0.15625 7.328125 0.15625 C 11.28125 0.15625 12.34375 -2.5 12.34375 -2.921875 Z M 9.96875 -6.28125 L 4 -6.28125 C 4.046875 -7.25 4.078125 -8.296875 4.59375 -9.125 C 5.25 -10.125 6.25 -10.421875 6.96875 -10.421875 C 9.90625 -10.421875 9.953125 -7.15625 9.96875 -6.28125 Z M 9.96875 -6.28125 "/>
</g>
<g id="glyph-14-9-0aaa68c1">
<path d="M 7.328125 0 L 7.328125 -1.171875 L 5.59375 -1.171875 L 5.59375 -17.34375 L 1.171875 -17.15625 L 1.171875 -15.96875 C 2.71875 -15.96875 2.90625 -15.96875 2.90625 -15 L 2.90625 -1.171875 L 1.171875 -1.171875 L 1.171875 0 L 4.25 -0.078125 Z M 7.328125 0 "/>
</g>
<g id="glyph-14-10-0aaa68c1">
<path d="M 12.921875 -5.546875 L 11.75 -5.546875 C 11.671875 -5.046875 11.453125 -3.453125 11.09375 -3.28125 C 10.828125 -3.125 8.953125 -3.125 8.546875 -3.125 L 4.875 -3.125 C 6.046875 -4.09375 7.34375 -5.171875 8.46875 -6 C 11.328125 -8.09375 12.921875 -9.28125 12.921875 -11.65625 C 12.921875 -14.53125 10.328125 -16.375 6.796875 -16.375 C 3.78125 -16.375 1.421875 -14.828125 1.421875 -12.578125 C 1.421875 -11.09375 2.625 -10.71875 3.21875 -10.71875 C 4.03125 -10.71875 5.03125 -11.28125 5.03125 -12.53125 C 5.03125 -13.828125 3.96875 -14.21875 3.59375 -14.328125 C 4.328125 -14.921875 5.28125 -15.203125 6.171875 -15.203125 C 8.328125 -15.203125 9.46875 -13.5 9.46875 -11.625 C 9.46875 -9.90625 8.53125 -8.203125 6.78125 -6.421875 L 1.75 -1.296875 C 1.421875 -1 1.421875 -0.953125 1.421875 -0.453125 L 1.421875 0 L 12.15625 0 Z M 12.921875 -5.546875 "/>
</g>
<g id="glyph-14-11-0aaa68c1">
<path d="M 14.5 -9.921875 L 14.5 -11.09375 C 13.90625 -11.046875 13.15625 -11.03125 12.53125 -11.03125 L 10.25 -11.09375 L 10.25 -9.921875 C 10.25 -9.921875 11.421875 -9.921875 11.421875 -9.625 L 11.296875 -9.328125 L 8.421875 -3.171875 L 5.25 -9.921875 L 6.59375 -9.921875 L 6.59375 -11.09375 L 3.5 -11.03125 L 0.65625 -11.09375 L 0.65625 -9.921875 L 2.25 -9.921875 L 6.921875 0 L 6.34375 1.203125 C 5.796875 2.40625 5 4.09375 3.21875 4.09375 C 2.875 4.09375 2.828125 4.078125 2.625 4 C 2.84375 3.90625 3.421875 3.546875 3.421875 2.671875 C 3.421875 1.84375 2.828125 1.25 1.96875 1.25 C 1.28125 1.25 0.546875 1.71875 0.546875 2.703125 C 0.546875 3.96875 1.71875 5 3.21875 5 C 5.15625 5 6.59375 3.453125 7.28125 2.03125 L 12.65625 -9.40625 C 12.828125 -9.75 12.90625 -9.921875 14.5 -9.921875 Z M 14.5 -9.921875 "/>
</g>
<g id="glyph-14-12-0aaa68c1">
<path d="M 13.15625 -4.5 C 13.15625 -5.875 12.421875 -8.03125 8.796875 -8.796875 C 10.53125 -9.328125 12.34375 -10.75 12.34375 -12.90625 C 12.34375 -14.828125 10.453125 -16.375 6.921875 -16.375 C 3.953125 -16.375 2 -14.78125 2 -12.78125 C 2 -11.703125 2.78125 -11.03125 3.71875 -11.03125 C 4.84375 -11.03125 5.46875 -11.828125 5.46875 -12.75 C 5.46875 -14.203125 4.125 -14.46875 4.03125 -14.5 C 4.90625 -15.203125 6 -15.40625 6.78125 -15.40625 C 8.84375 -15.40625 8.921875 -13.796875 8.921875 -12.96875 C 8.921875 -12.65625 8.90625 -9.375 6.296875 -9.21875 C 5.28125 -9.171875 5.21875 -9.15625 5.09375 -9.125 C 4.84375 -9.09375 4.796875 -8.84375 4.796875 -8.703125 C 4.796875 -8.25 5.046875 -8.25 5.5 -8.25 L 6.59375 -8.25 C 9.328125 -8.25 9.328125 -5.796875 9.328125 -4.53125 C 9.328125 -3.34375 9.328125 -0.796875 6.71875 -0.796875 C 6.078125 -0.796875 4.78125 -0.90625 3.578125 -1.65625 C 4.40625 -1.875 5.03125 -2.5 5.03125 -3.53125 C 5.03125 -4.65625 4.21875 -5.421875 3.125 -5.421875 C 2.078125 -5.421875 1.203125 -4.75 1.203125 -3.46875 C 1.203125 -1.21875 3.625 0.28125 6.84375 0.28125 C 11.328125 0.28125 13.15625 -2.21875 13.15625 -4.5 Z M 13.15625 -4.5 "/>
</g>
<g id="glyph-15-0-0aaa68c1">
<path d="M 9.546875 -3.09375 L 9.546875 -4.421875 L 8.375 -4.421875 L 8.375 -3.15625 C 8.375 -1.453125 7.578125 -0.84375 6.875 -0.84375 C 5.421875 -0.84375 5.421875 -2.453125 5.421875 -3.03125 L 5.421875 -9.921875 L 9.078125 -9.921875 L 9.078125 -11.09375 L 5.421875 -11.09375 L 5.421875 -15.875 L 4.25 -15.875 C 4.21875 -13.375 3 -10.90625 0.53125 -10.828125 L 0.53125 -9.921875 L 2.578125 -9.921875 L 2.578125 -3.078125 C 2.578125 -0.40625 4.75 0.15625 6.53125 0.15625 C 8.421875 0.15625 9.546875 -1.28125 9.546875 -3.09375 Z M 9.546875 -3.09375 "/>
</g>
<g id="glyph-15-1-0aaa68c1">
<path d="M 13.546875 -5.453125 C 13.546875 -8.796875 11.25 -11.328125 7.171875 -11.328125 C 3.078125 -11.328125 0.796875 -8.78125 0.796875 -5.453125 C 0.796875 -2.34375 3 0.15625 7.171875 0.15625 C 11.375 0.15625 13.546875 -2.375 13.546875 -5.453125 Z M 10.34375 -5.71875 C 10.34375 -3.546875 10.34375 -0.84375 7.171875 -0.84375 C 4 -0.84375 4 -3.546875 4 -5.71875 C 4 -6.84375 4 -8.125 4.421875 -8.96875 C 4.90625 -9.90625 5.953125 -10.421875 7.171875 -10.421875 C 8.21875 -10.421875 9.28125 -10.03125 9.828125 -9.15625 C 10.34375 -8.296875 10.34375 -6.921875 10.34375 -5.71875 Z M 10.34375 -5.71875 "/>
</g>
<g id="glyph-16-0-0aaa68c1">
<path d="M 11.046875 -9.203125 C 11.046875 -10.53125 9.703125 -11.25 8.40625 -11.25 C 6.65625 -11.25 5.65625 -10 5.078125 -8.421875 L 5.078125 -11.25 L 0.921875 -11.046875 L 0.921875 -9.875 C 2.46875 -9.875 2.65625 -9.875 2.65625 -8.90625 L 2.65625 -1.171875 L 0.921875 -1.171875 L 0.921875 0 L 4.078125 -0.078125 C 5.03125 -0.078125 6.625 -0.078125 7.53125 0 L 7.53125 -1.171875 L 5.34375 -1.171875 L 5.34375 -5.546875 C 5.34375 -7.296875 5.96875 -10.34375 8.46875 -10.34375 C 8.46875 -10.34375 8 -9.921875 8 -9.203125 C 8 -8.171875 8.796875 -7.671875 9.53125 -7.671875 C 10.25 -7.671875 11.046875 -8.203125 11.046875 -9.203125 Z M 11.046875 -9.203125 "/>
</g>
<g id="glyph-16-1-0aaa68c1">
<path d="M 13.828125 -0.59375 C 13.828125 -1.171875 13.5 -1.171875 13.171875 -1.171875 C 11.65625 -1.203125 11.65625 -1.53125 11.65625 -2.09375 L 11.65625 -7.46875 C 11.65625 -9.703125 9.875 -11.328125 6.15625 -11.328125 C 4.71875 -11.328125 1.671875 -11.21875 1.671875 -9.03125 C 1.671875 -7.921875 2.546875 -7.453125 3.21875 -7.453125 C 4 -7.453125 4.796875 -7.96875 4.796875 -9.03125 C 4.796875 -9.78125 4.328125 -10.203125 4.25 -10.25 C 4.953125 -10.40625 5.75 -10.421875 6.046875 -10.421875 C 7.921875 -10.421875 8.796875 -9.375 8.796875 -7.46875 L 8.796875 -6.625 C 7.03125 -6.546875 0.671875 -6.328125 0.671875 -2.703125 C 0.671875 -0.296875 3.78125 0.15625 5.5 0.15625 C 7.5 0.15625 8.671875 -0.875 9.21875 -1.921875 C 9.21875 -1.15625 9.21875 0 11.828125 0 L 13.03125 0 C 13.53125 0 13.828125 0 13.828125 -0.59375 Z M 8.796875 -3.46875 C 8.796875 -1.078125 6.5 -0.75 5.875 -0.75 C 4.59375 -0.75 3.59375 -1.625 3.59375 -2.71875 C 3.59375 -5.421875 7.546875 -5.78125 8.796875 -5.84375 Z M 8.796875 -3.46875 "/>
</g>
<g id="glyph-17-0-0aaa68c1">
<path d="M 12.34375 -2.921875 C 12.34375 -3.375 11.875 -3.375 11.75 -3.375 C 11.328125 -3.375 11.28125 -3.25 11.125 -2.84375 C 10.59375 -1.65625 9.171875 -0.84375 7.546875 -0.84375 C 4.03125 -0.84375 4 -4.171875 4 -5.453125 L 11.546875 -5.453125 C 12.09375 -5.453125 12.34375 -5.453125 12.34375 -6.125 C 12.34375 -6.90625 12.203125 -8.71875 10.953125 -9.96875 C 10.03125 -10.875 8.703125 -11.328125 6.96875 -11.328125 C 2.96875 -11.328125 0.796875 -8.75 0.796875 -5.625 C 0.796875 -2.28125 3.296875 0.15625 7.328125 0.15625 C 11.28125 0.15625 12.34375 -2.5 12.34375 -2.921875 Z M 9.96875 -6.28125 L 4 -6.28125 C 4.046875 -7.25 4.078125 -8.296875 4.59375 -9.125 C 5.25 -10.125 6.25 -10.421875 6.96875 -10.421875 C 9.90625 -10.421875 9.953125 -7.15625 9.96875 -6.28125 Z M 9.96875 -6.28125 "/>
</g>
<g id="glyph-17-1-0aaa68c1">
</g>
<g id="glyph-18-0-0aaa68c1">
<path d="M 7.328125 0 L 7.328125 -1.171875 L 5.59375 -1.171875 L 5.59375 -17.34375 L 1.171875 -17.15625 L 1.171875 -15.96875 C 2.71875 -15.96875 2.90625 -15.96875 2.90625 -15 L 2.90625 -1.171875 L 1.171875 -1.171875 L 1.171875 0 L 4.25 -0.078125 Z M 7.328125 0 "/>
</g>
<g id="glyph-18-1-0aaa68c1">
<path d="M 12.34375 -2.921875 C 12.34375 -3.375 11.875 -3.375 11.75 -3.375 C 11.328125 -3.375 11.28125 -3.25 11.125 -2.84375 C 10.59375 -1.65625 9.171875 -0.84375 7.546875 -0.84375 C 4.03125 -0.84375 4 -4.171875 4 -5.453125 L 11.546875 -5.453125 C 12.09375 -5.453125 12.34375 -5.453125 12.34375 -6.125 C 12.34375 -6.90625 12.203125 -8.71875 10.953125 -9.96875 C 10.03125 -10.875 8.703125 -11.328125 6.96875 -11.328125 C 2.96875 -11.328125 0.796875 -8.75 0.796875 -5.625 C 0.796875 -2.28125 3.296875 0.15625 7.328125 0.15625 C 11.28125 0.15625 12.34375 -2.5 12.34375 -2.921875 Z M 9.96875 -6.28125 L 4 -6.28125 C 4.046875 -7.25 4.078125 -8.296875 4.59375 -9.125 C 5.25 -10.125 6.25 -10.421875 6.96875 -10.421875 C 9.90625 -10.421875 9.953125 -7.15625 9.96875 -6.28125 Z M 9.96875 -6.28125 "/>
</g>
<g id="glyph-19-0-0aaa68c1">
<path d="M 14.5 -9.921875 L 14.5 -11.09375 C 13.90625 -11.046875 13.15625 -11.03125 12.53125 -11.03125 L 10.25 -11.09375 L 10.25 -9.921875 C 10.25 -9.921875 11.421875 -9.921875 11.421875 -9.625 L 11.296875 -9.328125 L 8.421875 -3.171875 L 5.25 -9.921875 L 6.59375 -9.921875 L 6.59375 -11.09375 L 3.5 -11.03125 L 0.65625 -11.09375 L 0.65625 -9.921875 L 2.25 -9.921875 L 6.921875 0 L 6.34375 1.203125 C 5.796875 2.40625 5 4.09375 3.21875 4.09375 C 2.875 4.09375 2.828125 4.078125 2.625 4 C 2.84375 3.90625 3.421875 3.546875 3.421875 2.671875 C 3.421875 1.84375 2.828125 1.25 1.96875 1.25 C 1.28125 1.25 0.546875 1.71875 0.546875 2.703125 C 0.546875 3.96875 1.71875 5 3.21875 5 C 5.15625 5 6.59375 3.453125 7.28125 2.03125 L 12.65625 -9.40625 C 12.828125 -9.75 12.90625 -9.921875 14.5 -9.921875 Z M 14.5 -9.921875 "/>
</g>
<g id="glyph-20-0-0aaa68c1">
<path d="M 6.171875 0 L 6.171875 -0.78125 C 4.53125 -0.78125 4.421875 -0.90625 4.421875 -1.875 L 4.421875 -11.046875 L 0.921875 -10.78125 L 0.921875 -10 C 2.546875 -10 2.78125 -9.84375 2.78125 -8.625 L 2.78125 -1.90625 C 2.78125 -0.78125 2.5 -0.78125 0.828125 -0.78125 L 0.828125 0 L 3.578125 -0.078125 C 4.453125 -0.078125 5.328125 -0.03125 6.171875 0 Z M 4.796875 -15.09375 C 4.796875 -15.78125 4.21875 -16.421875 3.46875 -16.421875 C 2.625 -16.421875 2.125 -15.71875 2.125 -15.09375 C 2.125 -14.421875 2.703125 -13.78125 3.453125 -13.78125 C 4.296875 -13.78125 4.796875 -14.46875 4.796875 -15.09375 Z M 4.796875 -15.09375 "/>
</g>
<g id="glyph-20-1-0aaa68c1">
<path d="M 20.328125 0 L 20.328125 -0.78125 C 19.03125 -0.78125 18.40625 -0.78125 18.375 -1.53125 L 18.375 -6.296875 C 18.375 -8.453125 18.375 -9.21875 17.59375 -10.125 C 17.25 -10.546875 16.421875 -11.046875 14.96875 -11.046875 C 12.875 -11.046875 11.78125 -9.546875 11.34375 -8.59375 C 11 -10.78125 9.15625 -11.046875 8.03125 -11.046875 C 6.203125 -11.046875 5.03125 -9.96875 4.328125 -8.421875 L 4.328125 -11.046875 L 0.796875 -10.78125 L 0.796875 -10 C 2.546875 -10 2.75 -9.828125 2.75 -8.59375 L 2.75 -1.90625 C 2.75 -0.78125 2.46875 -0.78125 0.796875 -0.78125 L 0.796875 0 L 3.625 -0.078125 L 6.421875 0 L 6.421875 -0.78125 C 4.75 -0.78125 4.46875 -0.78125 4.46875 -1.90625 L 4.46875 -6.5 C 4.46875 -9.09375 6.25 -10.5 7.84375 -10.5 C 9.421875 -10.5 9.703125 -9.15625 9.703125 -7.71875 L 9.703125 -1.90625 C 9.703125 -0.78125 9.421875 -0.78125 7.75 -0.78125 L 7.75 0 L 10.578125 -0.078125 L 13.375 0 L 13.375 -0.78125 C 11.703125 -0.78125 11.421875 -0.78125 11.421875 -1.90625 L 11.421875 -6.5 C 11.421875 -9.09375 13.203125 -10.5 14.796875 -10.5 C 16.375 -10.5 16.65625 -9.15625 16.65625 -7.71875 L 16.65625 -1.90625 C 16.65625 -0.78125 16.375 -0.78125 14.703125 -0.78125 L 14.703125 0 L 17.53125 -0.078125 Z M 20.328125 0 "/>
</g>
<g id="glyph-20-2-0aaa68c1">
<path d="M 10.46875 0 L 10.46875 -0.78125 L 9.671875 -0.78125 C 7.421875 -0.78125 7.34375 -1.046875 7.34375 -1.96875 L 7.34375 -16 C 7.34375 -16.59375 7.34375 -16.65625 6.78125 -16.65625 C 5.21875 -15.046875 3.03125 -15.046875 2.21875 -15.046875 L 2.21875 -14.28125 C 2.71875 -14.28125 4.203125 -14.28125 5.5 -14.921875 L 5.5 -1.96875 C 5.5 -1.078125 5.421875 -0.78125 3.171875 -0.78125 L 2.375 -0.78125 L 2.375 0 C 3.25 -0.078125 5.421875 -0.078125 6.421875 -0.078125 C 7.421875 -0.078125 9.59375 -0.078125 10.46875 0 Z M 10.46875 0 "/>
</g>
<g id="glyph-21-0-0aaa68c1">
<path d="M 14.5 -9.921875 L 14.5 -11.09375 C 13.90625 -11.046875 13.15625 -11.03125 12.53125 -11.03125 L 10.25 -11.09375 L 10.25 -9.921875 C 10.25 -9.921875 11.421875 -9.921875 11.421875 -9.625 L 11.296875 -9.328125 L 8.421875 -3.171875 L 5.25 -9.921875 L 6.59375 -9.921875 L 6.59375 -11.09375 L 3.5 -11.03125 L 0.65625 -11.09375 L 0.65625 -9.921875 L 2.25 -9.921875 L 6.921875 0 L 6.34375 1.203125 C 5.796875 2.40625 5 4.09375 3.21875 4.09375 C 2.875 4.09375 2.828125 4.078125 2.625 4 C 2.84375 3.90625 3.421875 3.546875 3.421875 2.671875 C 3.421875 1.84375 2.828125 1.25 1.96875 1.25 C 1.28125 1.25 0.546875 1.71875 0.546875 2.703125 C 0.546875 3.96875 1.71875 5 3.21875 5 C 5.15625 5 6.59375 3.453125 7.28125 2.03125 L 12.65625 -9.40625 C 12.828125 -9.75 12.90625 -9.921875 14.5 -9.921875 Z M 14.5 -9.921875 "/>
</g>
<g id="glyph-22-0-0aaa68c1">
<path d="M 11.5 -8 C 11.5 -10 11.375 -12 10.5 -13.84375 C 9.34375 -16.25 7.296875 -16.65625 6.25 -16.65625 C 4.75 -16.65625 2.921875 -16 1.90625 -13.671875 C 1.09375 -11.953125 0.96875 -10 0.96875 -8 C 0.96875 -6.125 1.078125 -3.875 2.09375 -1.96875 C 3.171875 0.046875 5 0.546875 6.21875 0.546875 C 7.578125 0.546875 9.46875 0.03125 10.578125 -2.34375 C 11.375 -4.078125 11.5 -6.03125 11.5 -8 Z M 9.421875 -8.296875 C 9.421875 -6.421875 9.421875 -4.71875 9.15625 -3.125 C 8.78125 -0.75 7.34375 0 6.21875 0 C 5.25 0 3.78125 -0.625 3.328125 -3.03125 C 3.046875 -4.53125 3.046875 -6.828125 3.046875 -8.296875 C 3.046875 -9.90625 3.046875 -11.546875 3.25 -12.90625 C 3.71875 -15.875 5.59375 -16.09375 6.21875 -16.09375 C 7.046875 -16.09375 8.703125 -15.65625 9.171875 -13.171875 C 9.421875 -11.78125 9.421875 -9.875 9.421875 -8.296875 Z M 9.421875 -8.296875 "/>
</g>
<g id="glyph-22-1-0aaa68c1">
<path d="M 11.21875 -5.03125 C 11.21875 -8 9.171875 -10.5 6.46875 -10.5 C 5.28125 -10.5 4.203125 -10.09375 3.296875 -9.21875 L 3.296875 -14.09375 C 3.796875 -13.953125 4.625 -13.78125 5.421875 -13.78125 C 8.5 -13.78125 10.25 -16.046875 10.25 -16.375 C 10.25 -16.53125 10.171875 -16.65625 10 -16.65625 C 10 -16.65625 9.921875 -16.65625 9.796875 -16.578125 C 9.296875 -16.34375 8.078125 -15.84375 6.40625 -15.84375 C 5.40625 -15.84375 4.25 -16.03125 3.078125 -16.546875 C 2.875 -16.625 2.78125 -16.625 2.78125 -16.625 C 2.53125 -16.625 2.53125 -16.421875 2.53125 -16.03125 L 2.53125 -8.625 C 2.53125 -8.171875 2.53125 -7.96875 2.875 -7.96875 C 3.046875 -7.96875 3.09375 -8.046875 3.203125 -8.203125 C 3.46875 -8.59375 4.40625 -9.953125 6.421875 -9.953125 C 7.71875 -9.953125 8.34375 -8.796875 8.546875 -8.34375 C 8.953125 -7.421875 9 -6.453125 9 -5.203125 C 9 -4.328125 9 -2.828125 8.40625 -1.78125 C 7.796875 -0.796875 6.875 -0.15625 5.71875 -0.15625 C 3.90625 -0.15625 2.46875 -1.46875 2.046875 -2.953125 C 2.125 -2.921875 2.203125 -2.90625 2.46875 -2.90625 C 3.296875 -2.90625 3.71875 -3.53125 3.71875 -4.125 C 3.71875 -4.71875 3.296875 -5.34375 2.46875 -5.34375 C 2.125 -5.34375 1.25 -5.171875 1.25 -4.03125 C 1.25 -1.875 2.96875 0.546875 5.78125 0.546875 C 8.671875 0.546875 11.21875 -1.84375 11.21875 -5.03125 Z M 11.21875 -5.03125 "/>
</g>
<g id="glyph-22-2-0aaa68c1">
<path d="M 8.296875 -3.09375 L 8.296875 -4.53125 L 7.671875 -4.53125 L 7.671875 -3.15625 C 7.671875 -1.296875 6.921875 -0.34375 6 -0.34375 C 4.328125 -0.34375 4.328125 -2.625 4.328125 -3.046875 L 4.328125 -10 L 7.90625 -10 L 7.90625 -10.78125 L 4.328125 -10.78125 L 4.328125 -15.375 L 3.703125 -15.375 C 3.671875 -13.328125 2.921875 -10.65625 0.46875 -10.546875 L 0.46875 -10 L 2.59375 -10 L 2.59375 -3.09375 C 2.59375 -0.03125 4.921875 0.28125 5.828125 0.28125 C 7.59375 0.28125 8.296875 -1.5 8.296875 -3.09375 Z M 8.296875 -3.09375 "/>
</g>
<g id="glyph-23-0-0aaa68c1">
<path d="M 13.828125 -0.59375 C 13.828125 -1.171875 13.5 -1.171875 13.171875 -1.171875 C 11.65625 -1.203125 11.65625 -1.53125 11.65625 -2.09375 L 11.65625 -7.46875 C 11.65625 -9.703125 9.875 -11.328125 6.15625 -11.328125 C 4.71875 -11.328125 1.671875 -11.21875 1.671875 -9.03125 C 1.671875 -7.921875 2.546875 -7.453125 3.21875 -7.453125 C 4 -7.453125 4.796875 -7.96875 4.796875 -9.03125 C 4.796875 -9.78125 4.328125 -10.203125 4.25 -10.25 C 4.953125 -10.40625 5.75 -10.421875 6.046875 -10.421875 C 7.921875 -10.421875 8.796875 -9.375 8.796875 -7.46875 L 8.796875 -6.625 C 7.03125 -6.546875 0.671875 -6.328125 0.671875 -2.703125 C 0.671875 -0.296875 3.78125 0.15625 5.5 0.15625 C 7.5 0.15625 8.671875 -0.875 9.21875 -1.921875 C 9.21875 -1.15625 9.21875 0 11.828125 0 L 13.03125 0 C 13.53125 0 13.828125 0 13.828125 -0.59375 Z M 8.796875 -3.46875 C 8.796875 -1.078125 6.5 -0.75 5.875 -0.75 C 4.59375 -0.75 3.59375 -1.625 3.59375 -2.71875 C 3.59375 -5.421875 7.546875 -5.78125 8.796875 -5.84375 Z M 8.796875 -3.46875 "/>
</g>
<g id="glyph-24-0-0aaa68c1">
<path d="M 17.671875 -8.40625 C 17.671875 -13.15625 14.296875 -17.078125 10.03125 -17.078125 L 0.875 -17.078125 L 0.875 -16.296875 L 1.46875 -16.296875 C 3.40625 -16.296875 3.453125 -16.03125 3.453125 -15.125 L 3.453125 -1.953125 C 3.453125 -1.046875 3.40625 -0.78125 1.46875 -0.78125 L 0.875 -0.78125 L 0.875 0 L 10.03125 0 C 14.21875 0 17.671875 -3.703125 17.671875 -8.40625 Z M 15.171875 -8.40625 C 15.171875 -5.625 14.703125 -4.125 13.796875 -2.90625 C 13.296875 -2.21875 11.875 -0.78125 9.34375 -0.78125 L 6.828125 -0.78125 C 5.65625 -0.78125 5.59375 -0.953125 5.59375 -1.78125 L 5.59375 -15.296875 C 5.59375 -16.125 5.65625 -16.296875 6.828125 -16.296875 L 9.328125 -16.296875 C 10.875 -16.296875 12.59375 -15.75 13.875 -13.96875 C 14.953125 -12.5 15.171875 -10.34375 15.171875 -8.40625 Z M 15.171875 -8.40625 "/>
</g>
<g id="glyph-24-1-0aaa68c1">
<path d="M 9.09375 -9.53125 C 9.09375 -10.328125 8.328125 -11.046875 7.25 -11.046875 C 5.421875 -11.046875 4.53125 -9.375 4.171875 -8.296875 L 4.171875 -11.046875 L 0.703125 -10.78125 L 0.703125 -10 C 2.453125 -10 2.65625 -9.828125 2.65625 -8.59375 L 2.65625 -1.90625 C 2.65625 -0.78125 2.375 -0.78125 0.703125 -0.78125 L 0.703125 0 L 3.546875 -0.078125 C 4.546875 -0.078125 5.71875 -0.078125 6.71875 0 L 6.71875 -0.78125 L 6.203125 -0.78125 C 4.34375 -0.78125 4.296875 -1.046875 4.296875 -1.953125 L 4.296875 -5.796875 C 4.296875 -8.28125 5.34375 -10.5 7.25 -10.5 C 7.421875 -10.5 7.46875 -10.5 7.53125 -10.46875 C 7.453125 -10.453125 6.953125 -10.15625 6.953125 -9.5 C 6.953125 -8.796875 7.46875 -8.421875 8.03125 -8.421875 C 8.46875 -8.421875 9.09375 -8.71875 9.09375 -9.53125 Z M 9.09375 -9.53125 "/>
</g>
<g id="glyph-24-2-0aaa68c1">
<path d="M 12.078125 -2.21875 L 12.078125 -3.625 L 11.453125 -3.625 L 11.453125 -2.21875 C 11.453125 -0.78125 10.828125 -0.625 10.546875 -0.625 C 9.71875 -0.625 9.625 -1.75 9.625 -1.875 L 9.625 -6.875 C 9.625 -7.921875 9.625 -8.90625 8.71875 -9.828125 C 7.75 -10.796875 6.5 -11.203125 5.296875 -11.203125 C 3.25 -11.203125 1.53125 -10.03125 1.53125 -8.375 C 1.53125 -7.625 2.03125 -7.203125 2.671875 -7.203125 C 3.375 -7.203125 3.828125 -7.703125 3.828125 -8.34375 C 3.828125 -8.65625 3.703125 -9.46875 2.546875 -9.5 C 3.21875 -10.375 4.453125 -10.65625 5.25 -10.65625 C 6.46875 -10.65625 7.90625 -9.671875 7.90625 -7.453125 L 7.90625 -6.53125 C 6.625 -6.453125 4.875 -6.375 3.296875 -5.625 C 1.421875 -4.78125 0.796875 -3.46875 0.796875 -2.375 C 0.796875 -0.34375 3.21875 0.28125 4.796875 0.28125 C 6.453125 0.28125 7.59375 -0.71875 8.078125 -1.90625 C 8.171875 -0.90625 8.84375 0.15625 10.03125 0.15625 C 10.546875 0.15625 12.078125 -0.203125 12.078125 -2.21875 Z M 7.90625 -3.5 C 7.90625 -1.125 6.09375 -0.28125 4.96875 -0.28125 C 3.75 -0.28125 2.71875 -1.15625 2.71875 -2.40625 C 2.71875 -3.78125 3.78125 -5.84375 7.90625 -6 Z M 7.90625 -3.5 "/>
</g>
<g id="glyph-24-3-0aaa68c1">
<path d="M 6.171875 0 L 6.171875 -0.78125 C 4.53125 -0.78125 4.421875 -0.90625 4.421875 -1.875 L 4.421875 -11.046875 L 0.921875 -10.78125 L 0.921875 -10 C 2.546875 -10 2.78125 -9.84375 2.78125 -8.625 L 2.78125 -1.90625 C 2.78125 -0.78125 2.5 -0.78125 0.828125 -0.78125 L 0.828125 0 L 3.578125 -0.078125 C 4.453125 -0.078125 5.328125 -0.03125 6.171875 0 Z M 4.796875 -15.09375 C 4.796875 -15.78125 4.21875 -16.421875 3.46875 -16.421875 C 2.625 -16.421875 2.125 -15.71875 2.125 -15.09375 C 2.125 -14.421875 2.703125 -13.78125 3.453125 -13.78125 C 4.296875 -13.78125 4.796875 -14.46875 4.796875 -15.09375 Z M 4.796875 -15.09375 "/>
</g>
<g id="glyph-24-4-0aaa68c1">
<path d="M 13.375 0 L 13.375 -0.78125 C 12.078125 -0.78125 11.453125 -0.78125 11.421875 -1.53125 L 11.421875 -6.296875 C 11.421875 -8.453125 11.421875 -9.21875 10.65625 -10.125 C 10.296875 -10.546875 9.46875 -11.046875 8.03125 -11.046875 C 6.203125 -11.046875 5.03125 -9.96875 4.328125 -8.421875 L 4.328125 -11.046875 L 0.796875 -10.78125 L 0.796875 -10 C 2.546875 -10 2.75 -9.828125 2.75 -8.59375 L 2.75 -1.90625 C 2.75 -0.78125 2.46875 -0.78125 0.796875 -0.78125 L 0.796875 0 L 3.625 -0.078125 L 6.421875 0 L 6.421875 -0.78125 C 4.75 -0.78125 4.46875 -0.78125 4.46875 -1.90625 L 4.46875 -6.5 C 4.46875 -9.09375 6.25 -10.5 7.84375 -10.5 C 9.421875 -10.5 9.703125 -9.15625 9.703125 -7.71875 L 9.703125 -1.90625 C 9.703125 -0.78125 9.421875 -0.78125 7.75 -0.78125 L 7.75 0 L 10.578125 -0.078125 Z M 13.375 0 "/>
</g>
<g id="glyph-24-5-0aaa68c1">
<path d="M 10.375 -2.96875 C 10.375 -3.21875 10.171875 -3.28125 10.046875 -3.28125 C 9.828125 -3.28125 9.78125 -3.125 9.71875 -2.921875 C 8.84375 -0.34375 6.59375 -0.34375 6.34375 -0.34375 C 5.09375 -0.34375 4.09375 -1.09375 3.53125 -2.03125 C 2.78125 -3.21875 2.78125 -4.875 2.78125 -5.78125 L 9.75 -5.78125 C 10.296875 -5.78125 10.375 -5.78125 10.375 -6.296875 C 10.375 -8.78125 9.03125 -11.203125 5.90625 -11.203125 C 3 -11.203125 0.703125 -8.625 0.703125 -5.5 C 0.703125 -2.15625 3.328125 0.28125 6.203125 0.28125 C 9.25 0.28125 10.375 -2.5 10.375 -2.96875 Z M 8.71875 -6.296875 L 2.796875 -6.296875 C 2.953125 -10.03125 5.046875 -10.65625 5.90625 -10.65625 C 8.46875 -10.65625 8.71875 -7.28125 8.71875 -6.296875 Z M 8.71875 -6.296875 "/>
</g>
<g id="glyph-24-6-0aaa68c1">
<path d="M 13.171875 0 L 13.171875 -0.78125 C 11.421875 -0.78125 11.21875 -0.953125 11.21875 -2.171875 L 11.21875 -17.34375 L 7.625 -17.078125 L 7.625 -16.296875 C 9.375 -16.296875 9.578125 -16.125 9.578125 -14.90625 L 9.578125 -9.5 C 8.84375 -10.40625 7.78125 -11.046875 6.421875 -11.046875 C 3.46875 -11.046875 0.84375 -8.59375 0.84375 -5.375 C 0.84375 -2.203125 3.296875 0.28125 6.15625 0.28125 C 7.75 0.28125 8.875 -0.578125 9.5 -1.375 L 9.5 0.28125 Z M 9.5 -2.953125 C 9.5 -2.5 9.5 -2.453125 9.21875 -2.03125 C 8.46875 -0.828125 7.34375 -0.28125 6.28125 -0.28125 C 5.15625 -0.28125 4.25 -0.921875 3.65625 -1.875 C 3 -2.90625 2.921875 -4.328125 2.921875 -5.34375 C 2.921875 -6.28125 2.96875 -7.78125 3.703125 -8.90625 C 4.21875 -9.671875 5.171875 -10.5 6.53125 -10.5 C 7.40625 -10.5 8.453125 -10.125 9.21875 -9 C 9.5 -8.578125 9.5 -8.53125 9.5 -8.078125 Z M 9.5 -2.953125 "/>
</g>
</g>
</defs>
<rect x="-150" y="-40" width="1800" height="480" fill="rgb(100%, 100%, 100%)" fill-opacity="1"/>
<path fill-rule="nonzero" fill="rgb(100%, 100%, 100%)" fill-opacity="1" d="M 71 324 L 515 324 L 515 56 L 71 56 Z M 71 324 "/>
<path fill-rule="nonzero" fill="rgb(100%, 100%, 100%)" fill-opacity="1" d="M 555 324 L 1000 324 L 1000 56 L 555 56 Z M 555 324 "/>
<path fill-rule="nonzero" fill="rgb(100%, 100%, 100%)" fill-opacity="1" d="M 1039 324 L 1484 324 L 1484 56 L 1039 56 Z M 1039 324 "/>
<path fill="none" stroke-width="1" stroke-linecap="butt" stroke-linejoin="miter" stroke="rgb(0%, 0%, 0%)" stroke-opacity="0.12" stroke-miterlimit="1.154701" d="M 91.183594 324 L 91.183594 56 "/>
<path fill="none" stroke-width="1" stroke-linecap="butt" stroke-linejoin="miter" stroke="rgb(0%, 0%, 0%)" stroke-opacity="0.12" stroke-miterlimit="1.154701" d="M 225.726562 324 L 225.726562 56 "/>
<path fill="none" stroke-width="1" stroke-linecap="butt" stroke-linejoin="miter" stroke="rgb(0%, 0%, 0%)" stroke-opacity="0.12" stroke-miterlimit="1.154701" d="M 360.273438 324 L 360.273438 56 "/>
<path fill="none" stroke-width="1" stroke-linecap="butt" stroke-linejoin="miter" stroke="rgb(0%, 0%, 0%)" stroke-opacity="0.12" stroke-miterlimit="1.154701" d="M 494.816406 324 L 494.816406 56 "/>
<path fill="none" stroke-width="1" stroke-linecap="butt" stroke-linejoin="miter" stroke="rgb(0%, 0%, 0%)" stroke-opacity="0.12" stroke-miterlimit="1.154701" d="M 71 311.816406 L 515 311.816406 "/>
<path fill="none" stroke-width="1" stroke-linecap="butt" stroke-linejoin="miter" stroke="rgb(0%, 0%, 0%)" stroke-opacity="0.12" stroke-miterlimit="1.154701" d="M 71 217.441406 L 515 217.441406 "/>
<path fill="none" stroke-width="1" stroke-linecap="butt" stroke-linejoin="miter" stroke="rgb(0%, 0%, 0%)" stroke-opacity="0.12" stroke-miterlimit="1.154701" d="M 71 123.0625 L 515 123.0625 "/>
<path fill="none" stroke-width="1" stroke-linecap="butt" stroke-linejoin="miter" stroke="rgb(0%, 0%, 0%)" stroke-opacity="0.12" stroke-miterlimit="1.154701" d="M 575.226562 324 L 575.226562 56 "/>
<path fill="none" stroke-width="1" stroke-linecap="butt" stroke-linejoin="miter" stroke="rgb(0%, 0%, 0%)" stroke-opacity="0.12" stroke-miterlimit="1.154701" d="M 710.074219 324 L 710.074219 56 "/>
<path fill="none" stroke-width="1" stroke-linecap="butt" stroke-linejoin="miter" stroke="rgb(0%, 0%, 0%)" stroke-opacity="0.12" stroke-miterlimit="1.154701" d="M 844.925781 324 L 844.925781 56 "/>
<path fill="none" stroke-width="1" stroke-linecap="butt" stroke-linejoin="miter" stroke="rgb(0%, 0%, 0%)" stroke-opacity="0.12" stroke-miterlimit="1.154701" d="M 979.773438 324 L 979.773438 56 "/>
<path fill="none" stroke-width="1" stroke-linecap="butt" stroke-linejoin="miter" stroke="rgb(0%, 0%, 0%)" stroke-opacity="0.12" stroke-miterlimit="1.154701" d="M 555 311.816406 L 1000 311.816406 "/>
<path fill="none" stroke-width="1" stroke-linecap="butt" stroke-linejoin="miter" stroke="rgb(0%, 0%, 0%)" stroke-opacity="0.12" stroke-miterlimit="1.154701" d="M 555 217.441406 L 1000 217.441406 "/>
<path fill="none" stroke-width="1" stroke-linecap="butt" stroke-linejoin="miter" stroke="rgb(0%, 0%, 0%)" stroke-opacity="0.12" stroke-miterlimit="1.154701" d="M 555 123.0625 L 1000 123.0625 "/>
<path fill="none" stroke-width="1" stroke-linecap="butt" stroke-linejoin="miter" stroke="rgb(0%, 0%, 0%)" stroke-opacity="0.12" stroke-miterlimit="1.154701" d="M 1059.226562 324 L 1059.226562 56 "/>
<path fill="none" stroke-width="1" stroke-linecap="butt" stroke-linejoin="miter" stroke="rgb(0%, 0%, 0%)" stroke-opacity="0.12" stroke-miterlimit="1.154701" d="M 1194.074219 324 L 1194.074219 56 "/>
<path fill="none" stroke-width="1" stroke-linecap="butt" stroke-linejoin="miter" stroke="rgb(0%, 0%, 0%)" stroke-opacity="0.12" stroke-miterlimit="1.154701" d="M 1328.925781 324 L 1328.925781 56 "/>
<path fill="none" stroke-width="1" stroke-linecap="butt" stroke-linejoin="miter" stroke="rgb(0%, 0%, 0%)" stroke-opacity="0.12" stroke-miterlimit="1.154701" d="M 1463.773438 324 L 1463.773438 56 "/>
<path fill="none" stroke-width="1" stroke-linecap="butt" stroke-linejoin="miter" stroke="rgb(0%, 0%, 0%)" stroke-opacity="0.12" stroke-miterlimit="1.154701" d="M 1039 311.816406 L 1484 311.816406 "/>
<path fill="none" stroke-width="1" stroke-linecap="butt" stroke-linejoin="miter" stroke="rgb(0%, 0%, 0%)" stroke-opacity="0.12" stroke-miterlimit="1.154701" d="M 1039 217.441406 L 1484 217.441406 "/>
<path fill="none" stroke-width="1" stroke-linecap="butt" stroke-linejoin="miter" stroke="rgb(0%, 0%, 0%)" stroke-opacity="0.12" stroke-miterlimit="1.154701" d="M 1039 123.0625 L 1484 123.0625 "/>
<g fill="rgb(0%, 0%, 0%)" fill-opacity="1">
<use xlink:href="#glyph-0-0-0aaa68c1" x="264.537498" y="380.15"/>
</g>
<g fill="rgb(0%, 0%, 0%)" fill-opacity="1">
<use xlink:href="#glyph-1-0-0aaa68c1" x="282.587498" y="380.15"/>
</g>
<g fill="rgb(0%, 0%, 0%)" fill-opacity="1">
<use xlink:href="#glyph-1-1-0aaa68c1" x="289.537498" y="380.15"/>
</g>
<g fill="rgb(0%, 0%, 0%)" fill-opacity="1">
<use xlink:href="#glyph-0-1-0aaa68c1" x="310.362499" y="380.15"/>
</g>
<g fill="rgb(0%, 0%, 0%)" fill-opacity="1">
<use xlink:href="#glyph-2-0-0aaa68c1" x="84.931816" y="352.15"/>
</g>
<g fill="rgb(0%, 0%, 0%)" fill-opacity="1">
<use xlink:href="#glyph-3-0-0aaa68c1" x="219.47728" y="352.15"/>
</g>
<g fill="rgb(0%, 0%, 0%)" fill-opacity="1">
<use xlink:href="#glyph-4-0-0aaa68c1" x="347.772736" y="352.15"/>
</g>
<g fill="rgb(0%, 0%, 0%)" fill-opacity="1">
<use xlink:href="#glyph-3-1-0aaa68c1" x="360.272736" y="352.15"/>
</g>
<g fill="rgb(0%, 0%, 0%)" fill-opacity="1">
<use xlink:href="#glyph-3-2-0aaa68c1" x="482.318176" y="352.15"/>
</g>
<g fill="rgb(0%, 0%, 0%)" fill-opacity="1">
<use xlink:href="#glyph-1-2-0aaa68c1" x="494.818176" y="352.15"/>
</g>
<g fill="rgb(0%, 0%, 0%)" fill-opacity="1">
<use xlink:href="#glyph-5-0-0aaa68c1" x="38.284614" y="273.033577"/>
</g>
<g fill="rgb(0%, 0%, 0%)" fill-opacity="1">
<use xlink:href="#glyph-6-0-0aaa68c1" x="38.284615" y="254.283577"/>
</g>
<g fill="rgb(0%, 0%, 0%)" fill-opacity="1">
<use xlink:href="#glyph-5-1-0aaa68c1" x="38.284616" y="241.783581"/>
</g>
<g fill="rgb(0%, 0%, 0%)" fill-opacity="1">
<use xlink:href="#glyph-5-2-0aaa68c1" x="38.284616" y="234.83358"/>
</g>
<g fill="rgb(0%, 0%, 0%)" fill-opacity="1">
<use xlink:href="#glyph-7-0-0aaa68c1" x="38.284617" y="220.93358"/>
</g>
<g fill="rgb(0%, 0%, 0%)" fill-opacity="1">
<use xlink:href="#glyph-6-1-0aaa68c1" x="38.284618" y="200.108581"/>
</g>
<g fill="rgb(0%, 0%, 0%)" fill-opacity="1">
<use xlink:href="#glyph-8-0-0aaa68c1" x="38.284619" y="189.008583"/>
</g>
<g fill="rgb(0%, 0%, 0%)" fill-opacity="1">
<use xlink:href="#glyph-9-0-0aaa68c1" x="37.08462" y="180.708581"/>
</g>
<g fill="rgb(0%, 0%, 0%)" fill-opacity="1">
<use xlink:href="#glyph-5-3-0aaa68c1" x="38.28462" y="169.812502"/>
</g>
<g fill="rgb(0%, 0%, 0%)" fill-opacity="1">
<use xlink:href="#glyph-10-0-0aaa68c1" x="38.284621" y="149.529247"/>
</g>
<g fill="rgb(0%, 0%, 0%)" fill-opacity="1">
<use xlink:href="#glyph-11-0-0aaa68c1" x="38.284622" y="137.029255"/>
</g>
<g fill="rgb(0%, 0%, 0%)" fill-opacity="1">
<use xlink:href="#glyph-12-0-0aaa68c1" x="27.509624" y="124.529259"/>
</g>
<g fill="rgb(0%, 0%, 0%)" fill-opacity="1">
<use xlink:href="#glyph-13-0-0aaa68c1" x="37.084624" y="117.029259"/>
</g>
<g fill="rgb(0%, 0%, 0%)" fill-opacity="1">
<use xlink:href="#glyph-3-1-0aaa68c1" x="48.5" y="319.468184"/>
</g>
<g fill="rgb(0%, 0%, 0%)" fill-opacity="1">
<use xlink:href="#glyph-3-3-0aaa68c1" x="48.5" y="225.09107"/>
</g>
<g fill="rgb(0%, 0%, 0%)" fill-opacity="1">
<use xlink:href="#glyph-3-4-0aaa68c1" x="48.5" y="130.713964"/>
</g>
<g fill="rgb(0%, 0%, 0%)" fill-opacity="1">
<use xlink:href="#glyph-14-0-0aaa68c1" x="197.712502" y="44.625"/>
</g>
<g fill="rgb(0%, 0%, 0%)" fill-opacity="1">
<use xlink:href="#glyph-15-0-0aaa68c1" x="213.6875" y="44.625"/>
</g>
<g fill="rgb(0%, 0%, 0%)" fill-opacity="1">
<use xlink:href="#glyph-15-1-0aaa68c1" x="224.862503" y="44.625"/>
</g>
<g fill="rgb(0%, 0%, 0%)" fill-opacity="1">
<use xlink:href="#glyph-16-0-0aaa68c1" x="239.237503" y="44.625"/>
</g>
<g fill="rgb(0%, 0%, 0%)" fill-opacity="1">
<use xlink:href="#glyph-16-1-0aaa68c1" x="251.087502" y="44.625"/>
</g>
<g fill="rgb(0%, 0%, 0%)" fill-opacity="1">
<use xlink:href="#glyph-14-1-0aaa68c1" x="265.0625" y="44.625"/>
</g>
<g fill="rgb(0%, 0%, 0%)" fill-opacity="1">
<use xlink:href="#glyph-17-0-0aaa68c1" x="279.4375" y="44.625"/>
</g>
<g fill="rgb(0%, 0%, 0%)" fill-opacity="1">
<use xlink:href="#glyph-17-1-0aaa68c1" x="292.612503" y="44.625"/>
</g>
<g fill="rgb(0%, 0%, 0%)" fill-opacity="1">
<use xlink:href="#glyph-18-0-0aaa68c1" x="302.1875" y="44.625"/>
</g>
<g fill="rgb(0%, 0%, 0%)" fill-opacity="1">
<use xlink:href="#glyph-14-2-0aaa68c1" x="310.162498" y="44.625"/>
</g>
<g fill="rgb(0%, 0%, 0%)" fill-opacity="1">
<use xlink:href="#glyph-19-0-0aaa68c1" x="324.137497" y="44.625"/>
</g>
<g fill="rgb(0%, 0%, 0%)" fill-opacity="1">
<use xlink:href="#glyph-18-1-0aaa68c1" x="339.312492" y="44.625"/>
</g>
<g fill="rgb(0%, 0%, 0%)" fill-opacity="1">
<use xlink:href="#glyph-14-3-0aaa68c1" x="352.487495" y="44.625"/>
</g>
<g fill="rgb(0%, 0%, 0%)" fill-opacity="1">
<use xlink:href="#glyph-14-4-0aaa68c1" x="364.337502" y="44.625"/>
</g>
<g fill="rgb(0%, 0%, 0%)" fill-opacity="1">
<use xlink:href="#glyph-14-5-0aaa68c1" x="373.912498" y="44.625"/>
</g>
<path fill="none" stroke-width="4" stroke-linecap="butt" stroke-linejoin="miter" stroke="rgb(0%, 0%, 0%)" stroke-opacity="1" stroke-miterlimit="2" d="M 91.183594 311.816406 L 105.101562 292.292969 L 132.9375 253.238281 L 146.855469 233.714844 L 188.609375 175.132812 L 202.53125 155.609375 L 230.367188 116.554688 L 244.285156 106.160156 L 286.039062 145.136719 L 299.960938 158.125 L 355.632812 210.09375 L 369.550781 223.082031 L 383.46875 228.097656 L 494.816406 228.097656 "/>
<path fill="none" stroke-width="4" stroke-linecap="butt" stroke-linejoin="miter" stroke="rgb(0%, 0%, 0%)" stroke-opacity="1" stroke-dasharray="12 12" stroke-miterlimit="2" d="M 91.183594 311.816406 L 230.367188 311.816406 L 244.285156 308.167969 L 258.203125 295.179688 L 286.039062 269.195312 L 299.960938 256.203125 L 313.878906 243.210938 L 327.796875 230.222656 L 369.550781 191.246094 L 383.46875 186.234375 L 494.816406 186.234375 "/>
<g fill="rgb(0%, 0%, 0%)" fill-opacity="1">
<use xlink:href="#glyph-4-1-0aaa68c1" x="749.037498" y="380.15"/>
</g>
<g fill="rgb(0%, 0%, 0%)" fill-opacity="1">
<use xlink:href="#glyph-20-0-0aaa68c1" x="767.087498" y="380.15"/>
</g>
<g fill="rgb(0%, 0%, 0%)" fill-opacity="1">
<use xlink:href="#glyph-20-1-0aaa68c1" x="774.037498" y="380.15"/>
</g>
<g fill="rgb(0%, 0%, 0%)" fill-opacity="1">
<use xlink:href="#glyph-3-5-0aaa68c1" x="794.862499" y="380.15"/>
</g>
<g fill="rgb(0%, 0%, 0%)" fill-opacity="1">
<use xlink:href="#glyph-3-1-0aaa68c1" x="568.977295" y="352.15"/>
</g>
<g fill="rgb(0%, 0%, 0%)" fill-opacity="1">
<use xlink:href="#glyph-3-0-0aaa68c1" x="703.825745" y="352.15"/>
</g>
<g fill="rgb(0%, 0%, 0%)" fill-opacity="1">
<use xlink:href="#glyph-20-2-0aaa68c1" x="832.424255" y="352.15"/>
</g>
<g fill="rgb(0%, 0%, 0%)" fill-opacity="1">
<use xlink:href="#glyph-3-1-0aaa68c1" x="844.924255" y="352.15"/>
</g>
<g fill="rgb(0%, 0%, 0%)" fill-opacity="1">
<use xlink:href="#glyph-4-0-0aaa68c1" x="967.272705" y="352.15"/>
</g>
<g fill="rgb(0%, 0%, 0%)" fill-opacity="1">
<use xlink:href="#glyph-4-2-0aaa68c1" x="979.772705" y="352.15"/>
</g>
<g fill="rgb(0%, 0%, 0%)" fill-opacity="1">
<use xlink:href="#glyph-3-1-0aaa68c1" x="532.5" y="319.468184"/>
</g>
<g fill="rgb(0%, 0%, 0%)" fill-opacity="1">
<use xlink:href="#glyph-3-3-0aaa68c1" x="532.5" y="225.09107"/>
</g>
<g fill="rgb(0%, 0%, 0%)" fill-opacity="1">
<use xlink:href="#glyph-3-4-0aaa68c1" x="532.5" y="130.713964"/>
</g>
<g fill="rgb(0%, 0%, 0%)" fill-opacity="1">
<use xlink:href="#glyph-14-0-0aaa68c1" x="682.212502" y="44.625"/>
</g>
<g fill="rgb(0%, 0%, 0%)" fill-opacity="1">
<use xlink:href="#glyph-14-6-0aaa68c1" x="698.1875" y="44.625"/>
</g>
<g fill="rgb(0%, 0%, 0%)" fill-opacity="1">
<use xlink:href="#glyph-14-7-0aaa68c1" x="709.362503" y="44.625"/>
</g>
<g fill="rgb(0%, 0%, 0%)" fill-opacity="1">
<use xlink:href="#glyph-14-3-0aaa68c1" x="723.737503" y="44.625"/>
</g>
<g fill="rgb(0%, 0%, 0%)" fill-opacity="1">
<use xlink:href="#glyph-14-2-0aaa68c1" x="735.587502" y="44.625"/>
</g>
<g fill="rgb(0%, 0%, 0%)" fill-opacity="1">
<use xlink:href="#glyph-14-1-0aaa68c1" x="749.5625" y="44.625"/>
</g>
<g fill="rgb(0%, 0%, 0%)" fill-opacity="1">
<use xlink:href="#glyph-14-8-0aaa68c1" x="763.9375" y="44.625"/>
</g>
<g fill="rgb(0%, 0%, 0%)" fill-opacity="1">
<use xlink:href="#glyph-14-4-0aaa68c1" x="777.112503" y="44.625"/>
</g>
<g fill="rgb(0%, 0%, 0%)" fill-opacity="1">
<use xlink:href="#glyph-14-9-0aaa68c1" x="786.6875" y="44.625"/>
</g>
<g fill="rgb(0%, 0%, 0%)" fill-opacity="1">
<use xlink:href="#glyph-14-2-0aaa68c1" x="794.662498" y="44.625"/>
</g>
<g fill="rgb(0%, 0%, 0%)" fill-opacity="1">
<use xlink:href="#glyph-21-0-0aaa68c1" x="808.637497" y="44.625"/>
</g>
<g fill="rgb(0%, 0%, 0%)" fill-opacity="1">
<use xlink:href="#glyph-18-1-0aaa68c1" x="823.812492" y="44.625"/>
</g>
<g fill="rgb(0%, 0%, 0%)" fill-opacity="1">
<use xlink:href="#glyph-14-3-0aaa68c1" x="836.987495" y="44.625"/>
</g>
<g fill="rgb(0%, 0%, 0%)" fill-opacity="1">
<use xlink:href="#glyph-14-4-0aaa68c1" x="848.837502" y="44.625"/>
</g>
<g fill="rgb(0%, 0%, 0%)" fill-opacity="1">
<use xlink:href="#glyph-14-10-0aaa68c1" x="858.412498" y="44.625"/>
</g>
<path fill="none" stroke-width="4" stroke-linecap="butt" stroke-linejoin="miter" stroke="rgb(0%, 0%, 0%)" stroke-opacity="1" stroke-miterlimit="2" d="M 575.226562 311.816406 L 714.726562 311.816406 L 728.675781 302.6875 L 756.574219 237.648438 L 770.523438 205.132812 L 784.476562 189.753906 L 854.222656 228.660156 L 868.175781 236.445312 L 910.023438 259.789062 L 923.972656 261.667969 L 979.773438 261.667969 "/>
<path fill="none" stroke-width="4" stroke-linecap="butt" stroke-linejoin="miter" stroke="rgb(0%, 0%, 0%)" stroke-opacity="1" stroke-dasharray="12 12" stroke-miterlimit="2" d="M 575.226562 311.816406 L 770.523438 311.816406 L 784.476562 308.507812 L 840.273438 277.382812 L 854.222656 269.597656 L 868.175781 261.816406 L 910.023438 238.472656 L 923.972656 236.59375 L 979.773438 236.59375 "/>
<g fill="rgb(0%, 0%, 0%)" fill-opacity="1">
<use xlink:href="#glyph-3-6-0aaa68c1" x="1233.037498" y="380.15"/>
</g>
<g fill="rgb(0%, 0%, 0%)" fill-opacity="1">
<use xlink:href="#glyph-3-7-0aaa68c1" x="1251.087498" y="380.15"/>
</g>
<g fill="rgb(0%, 0%, 0%)" fill-opacity="1">
<use xlink:href="#glyph-3-8-0aaa68c1" x="1258.037498" y="380.15"/>
</g>
<g fill="rgb(0%, 0%, 0%)" fill-opacity="1">
<use xlink:href="#glyph-3-5-0aaa68c1" x="1278.862499" y="380.15"/>
</g>
<g fill="rgb(0%, 0%, 0%)" fill-opacity="1">
<use xlink:href="#glyph-22-0-0aaa68c1" x="1052.977295" y="352.15"/>
</g>
<g fill="rgb(0%, 0%, 0%)" fill-opacity="1">
<use xlink:href="#glyph-3-0-0aaa68c1" x="1187.825806" y="352.15"/>
</g>
<g fill="rgb(0%, 0%, 0%)" fill-opacity="1">
<use xlink:href="#glyph-3-2-0aaa68c1" x="1316.424194" y="352.15"/>
</g>
<g fill="rgb(0%, 0%, 0%)" fill-opacity="1">
<use xlink:href="#glyph-3-1-0aaa68c1" x="1328.924194" y="352.15"/>
</g>
<g fill="rgb(0%, 0%, 0%)" fill-opacity="1">
<use xlink:href="#glyph-3-2-0aaa68c1" x="1451.272705" y="352.15"/>
</g>
<g fill="rgb(0%, 0%, 0%)" fill-opacity="1">
<use xlink:href="#glyph-22-1-0aaa68c1" x="1463.772705" y="352.15"/>
</g>
<g fill="rgb(0%, 0%, 0%)" fill-opacity="1">
<use xlink:href="#glyph-3-1-0aaa68c1" x="1016.5" y="319.468184"/>
</g>
<g fill="rgb(0%, 0%, 0%)" fill-opacity="1">
<use xlink:href="#glyph-3-3-0aaa68c1" x="1016.5" y="225.09107"/>
</g>
<g fill="rgb(0%, 0%, 0%)" fill-opacity="1">
<use xlink:href="#glyph-3-4-0aaa68c1" x="1016.5" y="130.713964"/>
</g>
<g fill="rgb(0%, 0%, 0%)" fill-opacity="1">
<use xlink:href="#glyph-14-0-0aaa68c1" x="1166.212502" y="44.625"/>
</g>
<g fill="rgb(0%, 0%, 0%)" fill-opacity="1">
<use xlink:href="#glyph-14-6-0aaa68c1" x="1182.1875" y="44.625"/>
</g>
<g fill="rgb(0%, 0%, 0%)" fill-opacity="1">
<use xlink:href="#glyph-14-7-0aaa68c1" x="1193.362503" y="44.625"/>
</g>
<g fill="rgb(0%, 0%, 0%)" fill-opacity="1">
<use xlink:href="#glyph-14-3-0aaa68c1" x="1207.737503" y="44.625"/>
</g>
<g fill="rgb(0%, 0%, 0%)" fill-opacity="1">
<use xlink:href="#glyph-14-2-0aaa68c1" x="1219.587502" y="44.625"/>
</g>
<g fill="rgb(0%, 0%, 0%)" fill-opacity="1">
<use xlink:href="#glyph-14-1-0aaa68c1" x="1233.5625" y="44.625"/>
</g>
<g fill="rgb(0%, 0%, 0%)" fill-opacity="1">
<use xlink:href="#glyph-14-8-0aaa68c1" x="1247.9375" y="44.625"/>
</g>
<g fill="rgb(0%, 0%, 0%)" fill-opacity="1">
<use xlink:href="#glyph-14-4-0aaa68c1" x="1261.112503" y="44.625"/>
</g>
<g fill="rgb(0%, 0%, 0%)" fill-opacity="1">
<use xlink:href="#glyph-14-9-0aaa68c1" x="1270.6875" y="44.625"/>
</g>
<g fill="rgb(0%, 0%, 0%)" fill-opacity="1">
<use xlink:href="#glyph-23-0-0aaa68c1" x="1278.662498" y="44.625"/>
</g>
<g fill="rgb(0%, 0%, 0%)" fill-opacity="1">
<use xlink:href="#glyph-14-11-0aaa68c1" x="1292.637497" y="44.625"/>
</g>
<g fill="rgb(0%, 0%, 0%)" fill-opacity="1">
<use xlink:href="#glyph-14-8-0aaa68c1" x="1307.812492" y="44.625"/>
</g>
<g fill="rgb(0%, 0%, 0%)" fill-opacity="1">
<use xlink:href="#glyph-14-3-0aaa68c1" x="1320.987495" y="44.625"/>
</g>
<g fill="rgb(0%, 0%, 0%)" fill-opacity="1">
<use xlink:href="#glyph-14-4-0aaa68c1" x="1332.837502" y="44.625"/>
</g>
<g fill="rgb(0%, 0%, 0%)" fill-opacity="1">
<use xlink:href="#glyph-14-12-0aaa68c1" x="1342.412498" y="44.625"/>
</g>
<path fill="none" stroke-width="4" stroke-linecap="butt" stroke-linejoin="miter" stroke="rgb(0%, 0%, 0%)" stroke-opacity="1" stroke-miterlimit="2" d="M 1059.226562 311.816406 L 1254.523438 311.816406 L 1268.476562 294.679688 L 1282.425781 254.382812 L 1324.273438 133.480469 L 1338.222656 106.199219 L 1352.175781 93.40625 L 1380.074219 77.84375 L 1394.023438 70.058594 L 1407.972656 68.183594 L 1463.773438 68.183594 "/>
<path fill="none" stroke-width="4" stroke-linecap="butt" stroke-linejoin="miter" stroke="rgb(0%, 0%, 0%)" stroke-opacity="1" stroke-dasharray="12 12" stroke-miterlimit="2" d="M 1059.226562 311.816406 L 1463.773438 311.816406 "/>
<path fill-rule="nonzero" fill="rgb(100%, 100%, 100%)" fill-opacity="1" stroke-width="1" stroke-linecap="butt" stroke-linejoin="miter" stroke="rgb(0%, 0%, 0%)" stroke-opacity="1" stroke-miterlimit="2" d="M 1045 127 L 1189 127 L 1189 62 L 1045 62 Z M 1045 127 "/>
<path fill="none" stroke-width="1" stroke-linecap="butt" stroke-linejoin="miter" stroke="rgb(0%, 0%, 0%)" stroke-opacity="1" stroke-miterlimit="1.154701" d="M 91.183594 324.5 L 91.183594 329.5 "/>
<path fill="none" stroke-width="1" stroke-linecap="butt" stroke-linejoin="miter" stroke="rgb(0%, 0%, 0%)" stroke-opacity="1" stroke-miterlimit="1.154701" d="M 225.726562 324.5 L 225.726562 329.5 "/>
<path fill="none" stroke-width="1" stroke-linecap="butt" stroke-linejoin="miter" stroke="rgb(0%, 0%, 0%)" stroke-opacity="1" stroke-miterlimit="1.154701" d="M 360.273438 324.5 L 360.273438 329.5 "/>
<path fill="none" stroke-width="1" stroke-linecap="butt" stroke-linejoin="miter" stroke="rgb(0%, 0%, 0%)" stroke-opacity="1" stroke-miterlimit="1.154701" d="M 494.816406 324.5 L 494.816406 329.5 "/>
<path fill="none" stroke-width="1" stroke-linecap="butt" stroke-linejoin="miter" stroke="rgb(0%, 0%, 0%)" stroke-opacity="1" stroke-miterlimit="1.154701" d="M 70.5 311.816406 L 65.5 311.816406 "/>
<path fill="none" stroke-width="1" stroke-linecap="butt" stroke-linejoin="miter" stroke="rgb(0%, 0%, 0%)" stroke-opacity="1" stroke-miterlimit="1.154701" d="M 70.5 217.441406 L 65.5 217.441406 "/>
<path fill="none" stroke-width="1" stroke-linecap="butt" stroke-linejoin="miter" stroke="rgb(0%, 0%, 0%)" stroke-opacity="1" stroke-miterlimit="1.154701" d="M 70.5 123.0625 L 65.5 123.0625 "/>
<path fill="none" stroke-width="1" stroke-linecap="butt" stroke-linejoin="miter" stroke="rgb(0%, 0%, 0%)" stroke-opacity="1" stroke-miterlimit="1.154701" d="M 575.226562 324.5 L 575.226562 329.5 "/>
<path fill="none" stroke-width="1" stroke-linecap="butt" stroke-linejoin="miter" stroke="rgb(0%, 0%, 0%)" stroke-opacity="1" stroke-miterlimit="1.154701" d="M 710.074219 324.5 L 710.074219 329.5 "/>
<path fill="none" stroke-width="1" stroke-linecap="butt" stroke-linejoin="miter" stroke="rgb(0%, 0%, 0%)" stroke-opacity="1" stroke-miterlimit="1.154701" d="M 844.925781 324.5 L 844.925781 329.5 "/>
<path fill="none" stroke-width="1" stroke-linecap="butt" stroke-linejoin="miter" stroke="rgb(0%, 0%, 0%)" stroke-opacity="1" stroke-miterlimit="1.154701" d="M 979.773438 324.5 L 979.773438 329.5 "/>
<path fill="none" stroke-width="1" stroke-linecap="butt" stroke-linejoin="miter" stroke="rgb(0%, 0%, 0%)" stroke-opacity="1" stroke-miterlimit="1.154701" d="M 554.5 311.816406 L 549.5 311.816406 "/>
<path fill="none" stroke-width="1" stroke-linecap="butt" stroke-linejoin="miter" stroke="rgb(0%, 0%, 0%)" stroke-opacity="1" stroke-miterlimit="1.154701" d="M 554.5 217.441406 L 549.5 217.441406 "/>
<path fill="none" stroke-width="1" stroke-linecap="butt" stroke-linejoin="miter" stroke="rgb(0%, 0%, 0%)" stroke-opacity="1" stroke-miterlimit="1.154701" d="M 554.5 123.0625 L 549.5 123.0625 "/>
<path fill="none" stroke-width="1" stroke-linecap="butt" stroke-linejoin="miter" stroke="rgb(0%, 0%, 0%)" stroke-opacity="1" stroke-miterlimit="1.154701" d="M 1059.226562 324.5 L 1059.226562 329.5 "/>
<path fill="none" stroke-width="1" stroke-linecap="butt" stroke-linejoin="miter" stroke="rgb(0%, 0%, 0%)" stroke-opacity="1" stroke-miterlimit="1.154701" d="M 1194.074219 324.5 L 1194.074219 329.5 "/>
<path fill="none" stroke-width="1" stroke-linecap="butt" stroke-linejoin="miter" stroke="rgb(0%, 0%, 0%)" stroke-opacity="1" stroke-miterlimit="1.154701" d="M 1328.925781 324.5 L 1328.925781 329.5 "/>
<path fill="none" stroke-width="1" stroke-linecap="butt" stroke-linejoin="miter" stroke="rgb(0%, 0%, 0%)" stroke-opacity="1" stroke-miterlimit="1.154701" d="M 1463.773438 324.5 L 1463.773438 329.5 "/>
<path fill="none" stroke-width="1" stroke-linecap="butt" stroke-linejoin="miter" stroke="rgb(0%, 0%, 0%)" stroke-opacity="1" stroke-miterlimit="1.154701" d="M 1038.5 311.816406 L 1033.5 311.816406 "/>
<path fill="none" stroke-width="1" stroke-linecap="butt" stroke-linejoin="miter" stroke="rgb(0%, 0%, 0%)" stroke-opacity="1" stroke-miterlimit="1.154701" d="M 1038.5 217.441406 L 1033.5 217.441406 "/>
<path fill="none" stroke-width="1" stroke-linecap="butt" stroke-linejoin="miter" stroke="rgb(0%, 0%, 0%)" stroke-opacity="1" stroke-miterlimit="1.154701" d="M 1038.5 123.0625 L 1033.5 123.0625 "/>
<path fill="none" stroke-width="4" stroke-linecap="butt" stroke-linejoin="miter" stroke="rgb(0%, 0%, 0%)" stroke-opacity="1" stroke-miterlimit="2" d="M 1050.875 80.5 L 1090.875 80.5 "/>
<path fill="none" stroke-width="4" stroke-linecap="butt" stroke-linejoin="miter" stroke="rgb(0%, 0%, 0%)" stroke-opacity="1" stroke-dasharray="12 12" stroke-miterlimit="2" d="M 1050.875 108.5 L 1090.875 108.5 "/>
<g fill="rgb(0%, 0%, 0%)" fill-opacity="1">
<use xlink:href="#glyph-3-9-0aaa68c1" x="1095.875023" y="88.15"/>
</g>
<g fill="rgb(0%, 0%, 0%)" fill-opacity="1">
<use xlink:href="#glyph-22-2-0aaa68c1" x="1109.775023" y="88.15"/>
</g>
<g fill="rgb(0%, 0%, 0%)" fill-opacity="1">
<use xlink:href="#glyph-3-10-0aaa68c1" x="1119.500023" y="88.15"/>
</g>
<g fill="rgb(0%, 0%, 0%)" fill-opacity="1">
<use xlink:href="#glyph-3-11-0aaa68c1" x="1132.000023" y="88.15"/>
</g>
<g fill="rgb(0%, 0%, 0%)" fill-opacity="1">
<use xlink:href="#glyph-3-5-0aaa68c1" x="1141.800022" y="88.15"/>
</g>
<g fill="rgb(0%, 0%, 0%)" fill-opacity="1">
<use xlink:href="#glyph-3-12-0aaa68c1" x="1152.900024" y="88.15"/>
</g>
<g fill="rgb(0%, 0%, 0%)" fill-opacity="1">
<use xlink:href="#glyph-24-0-0aaa68c1" x="1095.875" y="116.15"/>
</g>
<g fill="rgb(0%, 0%, 0%)" fill-opacity="1">
<use xlink:href="#glyph-24-1-0aaa68c1" x="1114.975" y="116.15"/>
</g>
<g fill="rgb(0%, 0%, 0%)" fill-opacity="1">
<use xlink:href="#glyph-24-2-0aaa68c1" x="1124.775002" y="116.15"/>
</g>
<g fill="rgb(0%, 0%, 0%)" fill-opacity="1">
<use xlink:href="#glyph-24-3-0aaa68c1" x="1137.275002" y="116.15"/>
</g>
<g fill="rgb(0%, 0%, 0%)" fill-opacity="1">
<use xlink:href="#glyph-24-4-0aaa68c1" x="1144.225002" y="116.15"/>
</g>
<g fill="rgb(0%, 0%, 0%)" fill-opacity="1">
<use xlink:href="#glyph-24-5-0aaa68c1" x="1158.125" y="116.15"/>
</g>
<g fill="rgb(0%, 0%, 0%)" fill-opacity="1">
<use xlink:href="#glyph-24-6-0aaa68c1" x="1169.224998" y="116.15"/>
</g>
<path fill="none" stroke-width="1" stroke-linecap="butt" stroke-linejoin="miter" stroke="rgb(0%, 0%, 0%)" stroke-opacity="1" stroke-miterlimit="1.154701" d="M 70.5 324 L 515.5 324 "/>
<path fill="none" stroke-width="1" stroke-linecap="butt" stroke-linejoin="miter" stroke="rgb(0%, 0%, 0%)" stroke-opacity="1" stroke-miterlimit="1.154701" d="M 71 324.5 L 71 55.5 "/>
<path fill="none" stroke-width="1" stroke-linecap="butt" stroke-linejoin="miter" stroke="rgb(0%, 0%, 0%)" stroke-opacity="1" stroke-miterlimit="1.154701" d="M 70.5 56 L 515.5 56 "/>
<path fill="none" stroke-width="1" stroke-linecap="butt" stroke-linejoin="miter" stroke="rgb(0%, 0%, 0%)" stroke-opacity="1" stroke-miterlimit="1.154701" d="M 515 324.5 L 515 55.5 "/>
<path fill="none" stroke-width="1" stroke-linecap="butt" stroke-linejoin="miter" stroke="rgb(0%, 0%, 0%)" stroke-opacity="1" stroke-miterlimit="1.154701" d="M 554.5 324 L 1000.5 324 "/>
<path fill="none" stroke-width="1" stroke-linecap="butt" stroke-linejoin="miter" stroke="rgb(0%, 0%, 0%)" stroke-opacity="1" stroke-miterlimit="1.154701" d="M 555 324.5 L 555 55.5 "/>
<path fill="none" stroke-width="1" stroke-linecap="butt" stroke-linejoin="miter" stroke="rgb(0%, 0%, 0%)" stroke-opacity="1" stroke-miterlimit="1.154701" d="M 554.5 56 L 1000.5 56 "/>
<path fill="none" stroke-width="1" stroke-linecap="butt" stroke-linejoin="miter" stroke="rgb(0%, 0%, 0%)" stroke-opacity="1" stroke-miterlimit="1.154701" d="M 1000 324.5 L 1000 55.5 "/>
<path fill="none" stroke-width="1" stroke-linecap="butt" stroke-linejoin="miter" stroke="rgb(0%, 0%, 0%)" stroke-opacity="1" stroke-miterlimit="1.154701" d="M 1038.5 324 L 1484.5 324 "/>
<path fill="none" stroke-width="1" stroke-linecap="butt" stroke-linejoin="miter" stroke="rgb(0%, 0%, 0%)" stroke-opacity="1" stroke-miterlimit="1.154701" d="M 1039 324.5 L 1039 55.5 "/>
<path fill="none" stroke-width="1" stroke-linecap="butt" stroke-linejoin="miter" stroke="rgb(0%, 0%, 0%)" stroke-opacity="1" stroke-miterlimit="1.154701" d="M 1038.5 56 L 1484.5 56 "/>
<path fill="none" stroke-width="1" stroke-linecap="butt" stroke-linejoin="miter" stroke="rgb(0%, 0%, 0%)" stroke-opacity="1" stroke-miterlimit="1.154701" d="M 1484 324.5 L 1484 55.5 "/>
</svg>
